<?xml version="1.0" standalone="no"?>
<!DOCTYPE svg PUBLIC "-//W3C//DTD SVG 20010904//EN"
 "http://www.w3.org/TR/2001/REC-SVG-20010904/DTD/svg10.dtd">
<svg version="1.0" xmlns="http://www.w3.org/2000/svg"
 width="4000.000000pt" height="6000.000000pt" viewBox="0 0 4000.000000 6000.000000"
 preserveAspectRatio="xMidYMid meet">

<g transform="translate(0.000000,6000.000000) scale(0.100000,-0.100000)"
fill="#000000" stroke="none">
<path d="M23975 47830 c3 -5 8 -10 11 -10 2 0 4 5 4 10 0 6 -5 10 -11 10 -5 0
-7 -4 -4 -10z"/>
<path d="M21515 46690 c3 -5 10 -10 16 -10 5 0 9 5 9 10 0 6 -7 10 -16 10 -8
0 -12 -4 -9 -10z"/>
<path d="M21965 46658 c11 -6 23 -16 27 -22 5 -7 8 -8 8 0 0 15 -22 34 -39 34
-12 -1 -11 -4 4 -12z"/>
<path d="M22126 46644 c-9 -24 -8 -26 14 -19 12 4 20 2 20 -5 0 -6 7 -19 17
-28 9 -9 14 -12 11 -7 -2 6 -10 25 -17 43 -14 34 -35 42 -45 16z"/>
<path d="M22085 46640 c3 -5 10 -10 16 -10 5 0 9 5 9 10 0 6 -7 10 -16 10 -8
0 -12 -4 -9 -10z"/>
<path d="M22010 46620 c-11 -7 -11 -11 -1 -24 10 -12 9 -16 -7 -25 -14 -7 -18
-18 -15 -36 3 -14 10 -25 15 -25 6 0 8 -6 5 -14 -4 -9 4 -16 24 -20 18 -3 29
-12 29 -22 0 -9 10 -24 23 -35 l22 -18 -22 -1 c-14 0 -23 6 -23 15 0 17 -16
20 -25 5 -9 -15 -43 -12 -70 6 -29 19 -31 32 -7 50 15 12 15 15 2 24 -8 5 -28
10 -45 10 -16 0 -41 7 -55 15 -29 17 -70 20 -70 5 0 -5 9 -10 19 -10 11 0 26
-6 33 -13 7 -8 20 -16 28 -20 10 -3 7 -6 -7 -6 -33 -1 -28 -28 6 -36 35 -7 56
-29 45 -46 -5 -9 2 -11 29 -6 43 7 48 2 37 -29 -7 -18 -6 -24 4 -24 8 0 16 -6
19 -14 5 -11 -5 -13 -46 -10 -29 3 -65 10 -80 16 -31 12 -32 12 -42 -21 -4
-14 -3 -21 2 -18 21 13 115 -25 100 -40 -5 -4 -12 -1 -17 7 -8 12 -10 10 -10
-7 0 -22 4 -25 45 -27 15 -1 19 -7 17 -23 -3 -19 2 -23 21 -23 32 0 44 -30 20
-48 -10 -7 -17 -18 -15 -24 2 -7 -17 -8 -56 -3 -50 6 -60 4 -66 -10 -9 -23 3
-39 19 -25 19 16 45 1 45 -26 0 -13 5 -24 10 -24 6 0 10 -9 10 -20 0 -22 3
-22 -102 1 -57 12 -88 8 -88 -11 0 -11 7 -14 52 -24 17 -4 27 -13 27 -24 -1
-9 2 -27 6 -39 7 -21 4 -23 -36 -23 -24 0 -61 5 -82 11 -22 6 -41 8 -45 5 -9
-10 2 -15 36 -18 32 -2 42 -13 20 -20 -7 -3 -9 -12 -4 -24 7 -18 8 -18 27 5
23 28 54 22 44 -9 -8 -24 16 -28 35 -6 6 8 18 12 26 9 7 -3 17 2 20 11 8 21
23 20 54 -4 22 -17 23 -20 7 -25 -9 -4 -15 -11 -12 -16 9 -13 -29 -29 -46 -18
-22 14 -61 11 -80 -7 -17 -15 -19 -15 -35 0 -11 11 -20 14 -28 7 -6 -5 -24 -8
-38 -7 -29 3 -48 -21 -20 -26 10 -2 20 -20 27 -48 10 -41 14 -45 43 -48 22 -2
32 -8 32 -20 0 -9 3 -33 6 -53 6 -36 6 -36 -35 -43 -43 -7 -55 -24 -21 -33 16
-4 18 -11 13 -32 l-6 -26 23 20 c12 11 30 19 40 17 19 -3 35 34 19 44 -10 6
-3 24 10 24 5 0 11 -9 14 -21 4 -15 11 -19 24 -15 23 7 38 -3 47 -30 5 -16 2
-23 -14 -27 -11 -3 -19 -11 -18 -19 4 -16 -50 -24 -65 -9 -19 19 -57 13 -57
-8 0 -11 6 -18 16 -17 10 0 24 -13 33 -31 18 -37 31 -41 38 -13 3 11 9 20 14
20 5 0 9 -9 9 -20 0 -11 -4 -20 -9 -20 -5 0 -11 -10 -13 -22 -3 -20 -11 -24
-53 -28 -33 -3 -59 0 -76 9 -26 15 -59 10 -59 -9 0 -5 18 -10 40 -10 29 0 40
-4 40 -15 0 -8 9 -15 20 -15 13 0 20 -7 20 -20 0 -11 -3 -20 -8 -20 -4 0 -12
-10 -17 -22 -9 -21 -17 -23 -70 -21 -33 0 -69 3 -80 5 -11 1 -22 -1 -24 -7 -2
-5 12 -13 31 -16 46 -7 82 -34 83 -61 0 -28 25 -36 32 -9 3 14 13 21 28 21 24
0 35 17 35 56 0 16 6 24 17 24 13 0 14 -3 5 -12 -19 -19 -14 -28 18 -39 31
-11 38 -23 20 -34 -15 -9 -12 -35 5 -35 7 0 18 6 22 13 8 12 53 19 53 8 -1 -3
-9 -15 -18 -27 -16 -19 -25 -21 -96 -15 -58 5 -80 3 -88 -7 -9 -11 -13 -11
-19 0 -6 8 -9 9 -9 2 0 -16 20 -31 53 -39 51 -13 89 -97 50 -109 -10 -3 -48
-4 -85 -1 -50 3 -69 1 -78 -10 -7 -8 -11 -15 -9 -16 2 0 18 -3 34 -5 17 -3 35
-11 41 -19 6 -8 25 -15 41 -15 27 0 30 -3 25 -25 -2 -14 -11 -25 -18 -25 -8 0
-14 -9 -14 -20 0 -19 -6 -20 -86 -18 -103 3 -117 -9 -47 -43 26 -13 51 -24 55
-24 8 0 37 -36 38 -46 0 -4 -9 -9 -21 -12 -12 -3 -18 -10 -15 -16 9 -15 -81
-30 -117 -20 -44 13 -57 11 -57 -6 0 -8 16 -19 40 -25 22 -6 40 -14 40 -19 0
-12 102 -43 111 -34 5 5 9 26 10 48 2 22 9 49 16 60 7 11 13 27 13 37 0 11 8
18 20 18 12 0 24 10 30 24 7 21 13 23 42 17 35 -7 51 -37 27 -52 -10 -6 -10
-11 -1 -22 10 -12 8 -16 -12 -21 -13 -3 -39 -3 -57 1 -25 5 -35 2 -46 -12 -18
-26 -16 -35 6 -35 32 0 51 -11 51 -30 0 -11 5 -22 12 -26 8 -5 6 -10 -7 -14
-11 -4 -22 -18 -25 -31 -5 -20 -13 -25 -45 -27 -22 -2 -45 -10 -52 -19 -9 -11
-22 -14 -48 -10 -25 4 -35 2 -35 -7 0 -10 -17 -7 -62 11 -59 24 -87 24 -91 -2
-2 -15 65 -45 94 -42 18 2 31 -3 38 -16 18 -27 56 -19 56 13 0 20 6 26 27 28
35 4 91 -25 84 -44 -3 -8 -2 -14 2 -14 4 0 13 -9 20 -21 22 -34 1 -47 -80 -47
-93 -1 -103 -12 -52 -59 21 -20 45 -36 51 -35 8 2 10 -3 7 -13 -4 -9 1 -17 11
-21 14 -6 13 -10 -11 -31 -15 -13 -34 -21 -42 -18 -8 3 -21 0 -29 -7 -11 -9
-16 -9 -23 3 -8 12 -13 12 -37 -3 -33 -20 -36 -42 -6 -46 12 -2 29 -14 37 -28
10 -14 26 -24 40 -24 14 0 26 -4 28 -9 2 -5 16 -7 31 -4 26 5 28 9 25 39 -4
38 -6 37 42 24 45 -12 69 -46 45 -64 -9 -6 -17 -21 -18 -34 -1 -19 -7 -22 -42
-22 -38 0 -65 -13 -65 -31 0 -5 14 -21 32 -38 30 -28 31 -31 17 -48 -9 -10
-19 -25 -22 -35 -3 -9 -21 -19 -39 -23 -38 -9 -77 -35 -78 -52 0 -6 14 -16 31
-22 30 -10 31 -13 26 -57 -6 -57 -15 -66 -67 -69 -23 -1 -46 -9 -51 -16 -5 -8
-9 -9 -9 -3 0 19 -28 24 -44 8 -12 -11 -20 -12 -35 -4 -14 7 -22 7 -26 0 -4
-6 -21 -8 -41 -4 -35 6 -64 -7 -64 -30 0 -6 16 -20 35 -30 19 -11 35 -25 35
-33 0 -7 5 -13 10 -13 6 0 10 -6 10 -14 0 -8 4 -18 10 -21 5 -3 8 0 5 7 -4 9
6 13 32 13 38 0 38 0 38 40 0 22 5 46 12 53 15 16 23 15 23 -2 0 -8 10 -16 22
-18 31 -4 48 -53 26 -70 -9 -7 -18 -24 -20 -38 -3 -21 -8 -25 -39 -25 -35 -1
-69 -18 -69 -35 0 -5 11 -22 25 -38 25 -30 33 -62 15 -62 -5 0 -13 -15 -18
-32 -7 -30 -12 -33 -50 -36 -23 -2 -42 -7 -42 -13 0 -17 -18 -9 -23 11 -6 23
-20 26 -39 6 -8 -7 -37 -17 -64 -20 -28 -4 -56 -11 -63 -15 -19 -12 -9 -65 15
-75 11 -5 26 -22 33 -37 10 -23 10 -32 -5 -53 -9 -14 -20 -23 -25 -20 -5 3
-19 -1 -31 -8 -13 -7 -27 -11 -32 -10 -18 6 -54 -8 -59 -22 -6 -15 24 -79 36
-77 4 1 19 -7 34 -19 14 -11 34 -20 44 -20 20 0 39 28 39 58 0 11 7 33 15 48
8 16 15 41 15 55 0 17 8 30 26 40 33 17 48 53 34 80 -9 15 -7 21 6 26 10 4 19
2 22 -5 2 -7 8 -10 12 -7 5 3 14 -5 21 -17 7 -13 18 -27 25 -31 8 -4 14 -16
13 -25 0 -10 -3 -12 -6 -4 -8 21 -33 13 -33 -11 0 -31 -18 -47 -53 -47 -17 0
-36 -8 -43 -17 -18 -24 -17 -70 1 -77 17 -6 20 -51 5 -61 -6 -3 -8 -17 -6 -30
4 -21 0 -25 -32 -30 -20 -3 -44 -10 -52 -14 -23 -12 -23 -55 -1 -91 17 -29 18
-35 5 -47 -8 -8 -14 -25 -14 -39 0 -22 -10 -29 -34 -25 -23 5 -54 -11 -59 -29
-6 -23 -27 -27 -27 -6 0 11 -9 13 -35 9 -25 -4 -35 -2 -35 8 0 10 -3 10 -12 1
-7 -7 -23 -12 -36 -12 -60 0 -81 -44 -41 -86 18 -19 26 -21 41 -13 17 9 19 8
14 -9 -14 -43 43 -39 62 4 7 14 12 33 12 43 0 30 25 31 46 4 10 -14 27 -28 37
-32 17 -6 16 -9 -9 -34 -30 -30 -29 -47 2 -19 10 9 38 29 61 44 23 16 66 50
95 78 29 27 59 50 68 50 9 0 70 52 135 116 66 64 128 120 138 125 18 10 24 39
7 39 -18 0 -11 35 10 48 11 7 20 21 20 31 0 16 3 18 23 8 22 -10 23 -13 9 -40
-16 -32 -6 -53 12 -23 6 11 21 29 32 40 150 144 205 199 216 215 7 10 31 27
52 37 22 11 44 27 50 37 6 10 55 64 109 119 53 56 97 105 97 110 0 5 12 14 28
19 15 6 51 42 82 81 50 64 88 107 184 208 18 19 67 82 110 140 42 58 92 124
111 147 20 23 45 63 58 90 27 58 63 119 93 155 13 16 25 49 29 78 5 34 20 70
46 109 24 35 43 79 49 111 5 28 19 72 30 97 11 25 20 56 20 69 0 26 18 107 31
139 4 11 10 70 14 131 10 188 -26 412 -97 604 -7 19 -36 78 -65 130 -28 52
-59 111 -69 130 -11 19 -29 49 -41 67 -13 17 -23 35 -23 39 0 5 -18 26 -39 49
-40 40 -56 61 -127 163 -41 59 -90 112 -105 112 -5 0 -9 3 -9 8 0 9 -68 93
-119 147 -21 22 -40 45 -42 50 -9 21 -70 56 -88 50 -11 -3 -26 1 -35 10 -20
21 -21 35 -1 35 21 0 19 23 -6 54 -26 33 -41 33 -65 1 -10 -14 -29 -25 -41
-25 -27 0 -28 -3 -7 -36 l17 -25 -39 4 c-47 4 -105 36 -102 56 4 20 43 24 58
6 7 -8 16 -12 21 -10 12 8 -1 35 -17 35 -17 0 -17 5 -4 29 8 15 5 18 -13 16
-12 0 -29 2 -38 6 -8 4 -21 4 -29 -1z m234 -186 c22 -9 21 -44 -2 -44 -23 0
-64 29 -57 41 7 10 36 12 59 3z m-65 -74 c20 0 35 -25 24 -42 -3 -6 -1 -8 4
-5 11 7 40 -20 31 -28 -11 -11 -114 17 -133 35 l-20 21 23 5 c12 4 22 14 22
23 0 27 13 34 22 11 4 -11 16 -20 27 -20z m-120 -55 c8 -23 21 -37 37 -41 27
-7 33 -24 8 -24 -8 0 -12 -4 -9 -10 3 -5 17 -10 31 -10 26 0 33 -15 11 -23
-12 -5 -44 0 -118 18 -20 5 -25 12 -22 26 3 11 13 18 22 17 13 -3 15 5 13 40
-3 51 9 55 27 7z m331 20 c0 -8 5 -15 10 -15 6 0 10 -7 10 -15 0 -15 -19 -14
-67 1 -21 6 -15 24 7 24 11 0 20 5 20 10 0 6 5 10 10 10 6 0 10 -7 10 -15z
m-74 -122 c-8 -9 -76 7 -76 17 0 6 9 10 19 10 11 0 23 5 26 11 5 6 13 2 22
-11 8 -12 13 -24 9 -27z m219 7 c3 -5 1 -10 -4 -10 -6 0 -11 5 -11 10 0 6 2
10 4 10 3 0 8 -4 11 -10z m-294 -60 c11 0 11 -21 0 -39 -11 -17 -91 -5 -91 13
0 14 49 36 68 30 8 -2 18 -4 23 -4z m219 -30 c0 -13 -30 -13 -50 0 -11 7 -7
10 18 10 17 0 32 -4 32 -10z m-415 -10 c3 -5 -3 -10 -15 -10 -12 0 -18 5 -15
10 3 6 10 10 15 10 5 0 12 -4 15 -10z m101 -60 c12 0 12 -3 -1 -23 -8 -13 -12
-27 -8 -32 5 -4 -7 -5 -26 -1 -18 3 -40 6 -47 6 -8 0 -14 7 -14 15 0 8 9 15
20 15 11 0 23 7 27 16 3 8 12 13 20 10 8 -3 21 -6 29 -6z m-139 -6 c-3 -3 -12
-4 -19 -1 -8 3 -5 6 6 6 11 1 17 -2 13 -5z m362 -33 c-3 -6 -10 -7 -18 -2 -7
5 -10 14 -6 21 9 14 29 -2 24 -19z m-439 -69 c0 -12 -23 -32 -37 -32 -7 0 -13
9 -13 20 0 15 7 20 25 20 14 0 25 -4 25 -8z m138 -9 c-9 -2 -19 -15 -22 -29
-8 -29 -26 -31 -57 -5 l-23 18 30 14 c16 8 43 12 59 10 17 -3 23 -6 13 -8z
m202 -14 c0 -14 -5 -19 -17 -17 -23 4 -28 25 -6 31 10 3 19 5 21 6 1 0 2 -8 2
-20z m245 1 c3 -5 2 -10 -4 -10 -5 0 -13 5 -16 10 -3 6 -2 10 4 10 5 0 13 -4
16 -10z m-325 -99 c0 -3 -4 -11 -8 -18 -10 -16 -64 -3 -70 17 -3 8 1 11 10 8
8 -4 21 -2 28 2 14 8 40 3 40 -9z m-187 -42 c-8 -8 -16 -8 -30 0 -16 9 -14 10
12 11 21 0 26 -3 18 -11z m-151 -71 c-5 -20 8 -24 26 -6 15 15 43 -7 35 -28
-6 -17 -89 -14 -140 6 -40 15 -46 50 -9 50 13 0 29 7 36 15 10 13 15 12 34 -3
14 -10 21 -24 18 -34z m224 21 c4 -8 9 -8 17 0 14 14 37 14 37 0 0 -6 -9 -13
-20 -16 -11 -3 -20 -12 -20 -19 0 -21 -25 -27 -52 -13 -13 7 -26 12 -30 11 -5
-1 -8 3 -8 8 0 6 9 10 20 10 11 0 23 7 26 15 7 18 20 19 30 4z m251 -22 c-3
-10 -14 -13 -31 -10 -32 6 -33 15 -3 29 25 12 42 2 34 -19z m-353 -26 c7 -10
-18 -34 -27 -25 -7 8 3 34 13 34 5 0 11 -4 14 -9z m66 -53 c-1 -7 -13 -28 -29
-46 -27 -32 -29 -32 -66 -20 -38 13 -60 38 -32 38 8 0 20 6 27 14 10 13 34 20
83 25 9 0 17 -5 17 -11z m193 -33 c9 -21 -9 -28 -34 -14 -17 9 -19 13 -8 20
21 13 36 11 42 -6z m-233 -105 c0 -11 -2 -20 -4 -20 -2 0 -12 -3 -22 -7 -13
-5 -15 -3 -8 8 5 8 9 17 10 22 3 15 4 17 14 17 6 0 10 -9 10 -20z m143 14 c3
-3 1 -17 -5 -30 -8 -17 -19 -24 -39 -24 -38 0 -44 15 -17 39 21 20 49 27 61
15z m-193 -68 c0 -3 -4 -8 -10 -11 -5 -3 -10 -1 -10 4 0 6 5 11 10 11 6 0 10
-2 10 -4z m93 -68 c13 -37 -43 -63 -82 -39 -17 11 -5 31 19 31 10 0 22 5 25
10 9 14 32 12 38 -2z m237 -14 c0 -8 -5 -12 -10 -9 -6 4 -8 11 -5 16 9 14 15
11 15 -7z m-67 -91 c-7 -2 -13 -13 -13 -23 0 -21 -24 -28 -65 -20 l-30 7 30
12 c17 7 39 17 50 21 11 5 25 9 30 9 6 -1 4 -3 -2 -6z m210 -24 c-7 -7 -19 -9
-29 -5 -16 6 -16 8 2 21 22 16 45 2 27 -16z m-453 4 c2 -2 -2 -8 -9 -12 -15
-10 -11 -43 6 -48 6 -2 16 9 21 24 7 17 11 21 11 11 1 -10 9 -18 19 -18 15 -1
15 -2 -2 -15 -24 -18 -66 -19 -126 -2 -48 13 -62 40 -23 45 12 2 27 10 33 18
11 12 54 11 70 -3z m80 3 c0 -3 -4 -8 -10 -11 -5 -3 -10 -1 -10 4 0 6 5 11 10
11 6 0 10 -2 10 -4z m41 -123 c0 -5 2 -16 4 -25 4 -23 -13 -35 -58 -40 -29 -3
-36 -1 -32 10 3 7 5 18 5 23 0 5 9 9 20 9 11 0 23 7 26 15 6 15 33 21 35 8z
m244 -14 c0 -8 -12 -15 -30 -17 l-30 -4 20 21 c22 22 40 22 40 0z m145 -114
c0 -9 -9 -15 -22 -15 -22 1 -23 1 -4 15 25 19 26 19 26 0z m-461 -21 c2 -2 -2
-17 -9 -34 -11 -26 -17 -30 -51 -30 -32 0 -39 3 -39 20 0 13 7 20 20 20 13 0
20 7 20 20 0 17 4 19 28 14 15 -4 29 -8 31 -10z m221 3 c0 -24 -25 -48 -43
-41 -23 8 -21 20 5 38 27 19 38 20 38 3z m-363 -13 c-3 -3 -12 -4 -19 -1 -8 3
-5 6 6 6 11 1 17 -2 13 -5z m73 -129 c13 -8 13 -35 0 -35 -6 0 -16 -11 -22
-25 -9 -20 -18 -25 -42 -24 -37 3 -76 -9 -76 -22 0 -5 -5 -9 -11 -9 -6 0 -1
13 10 29 12 16 21 33 21 39 0 5 9 12 20 15 12 3 20 14 20 26 0 18 5 21 35 17
19 -2 39 -7 45 -11z m220 -5 c-1 -24 -23 -46 -52 -53 -35 -9 -49 12 -20 31 12
8 22 20 22 27 0 7 11 12 25 11 15 0 25 -7 25 -16z m-96 -163 c15 -24 -5 -53
-35 -49 -51 5 -54 11 -23 41 32 32 42 33 58 8z m226 14 c0 -14 -18 -23 -30
-16 -6 4 -8 11 -5 16 8 12 35 12 35 0z m-291 -145 c8 -10 7 -22 -4 -49 -14
-34 -18 -36 -55 -34 -45 2 -49 9 -20 34 11 10 20 26 20 36 0 10 4 16 9 12 5
-3 12 -1 16 5 9 14 20 13 34 -4z m201 -27 c0 -12 -7 -19 -18 -19 -28 0 -34 11
-16 31 19 21 34 16 34 -12z m136 -146 c-10 -10 -19 5 -10 18 6 11 8 11 12 0 2
-7 1 -15 -2 -18z m-408 -45 c-11 -38 -28 -48 -80 -48 -33 0 -35 9 -10 41 10
13 21 32 25 41 7 20 47 28 64 13 10 -8 10 -19 1 -47z m210 29 c3 -25 1 -27
-38 -27 l-41 0 28 29 c33 35 47 34 51 -2z m-333 -147 c4 -6 14 -8 23 -6 10 3
23 2 31 -3 11 -7 11 -14 0 -45 -7 -21 -20 -43 -28 -49 -16 -14 -83 -16 -93 -3
-8 12 13 46 30 46 19 0 25 25 12 49 -9 17 -8 21 4 21 8 0 18 -5 21 -10z m263
1 c10 -6 10 -10 -2 -20 -8 -7 -13 -18 -10 -25 8 -20 -18 -35 -48 -29 -29 6
-36 17 -17 28 5 4 14 18 19 31 10 24 34 31 58 15z m115 -208 c-5 -13 -43 -19
-43 -7 0 3 8 16 18 29 15 20 18 21 23 7 3 -10 4 -23 2 -29z m-202 27 c10 -6
19 -15 19 -21 0 -6 -4 -8 -9 -5 -4 3 -6 -5 -4 -18 6 -29 -6 -38 -44 -30 l-30
6 20 39 c21 43 21 43 48 29z m134 -195 c0 -32 -28 -56 -45 -39 -8 8 -7 16 4
27 9 9 16 23 16 32 0 9 6 15 13 13 6 -3 12 -17 12 -33z m-205 11 c14 -18 10
-66 -7 -84 -8 -8 -19 -9 -36 -3 -14 6 -29 7 -33 3 -4 -4 0 5 9 20 9 15 17 33
17 41 0 14 19 37 31 37 4 0 12 -7 19 -14z m-89 -187 c16 -8 19 -17 14 -42 -10
-47 -42 -68 -74 -48 -11 7 -10 17 8 55 25 51 24 50 52 35z m209 -19 c0 -28 -5
-32 -37 -29 -10 1 -4 30 9 47 17 20 28 14 28 -18z m-281 -188 c5 -10 6 -33 2
-52 -6 -31 -11 -35 -40 -38 -45 -5 -64 15 -33 35 14 10 22 26 22 44 0 22 5 29
20 29 10 0 24 -8 29 -18z m201 -11 c0 -40 -19 -53 -50 -36 l-25 13 27 11 c19
7 26 15 22 26 -4 10 0 15 10 15 11 0 16 -9 16 -29z m180 20 c0 -6 -4 -13 -10
-16 -5 -3 -10 1 -10 9 0 9 5 16 10 16 6 0 10 -4 10 -9z m-540 -106 c0 -8 -4
-15 -10 -15 -5 0 -7 7 -4 15 4 8 8 15 10 15 2 0 4 -7 4 -15z m270 -107 c0 -28
-18 -58 -35 -58 -21 0 -29 19 -17 43 6 12 13 30 16 41 5 15 9 16 21 6 8 -7 15
-21 15 -32z m-203 13 c21 -18 22 -21 9 -57 -14 -41 -31 -50 -72 -40 -29 8 -31
22 -4 29 16 4 20 14 20 46 0 46 12 51 47 22z m363 -21 c0 -5 -5 -10 -11 -10
-5 0 -7 5 -4 10 3 6 8 10 11 10 2 0 4 -4 4 -10z m-440 -201 c7 -11 7 -27 0
-43 -5 -14 -7 -26 -4 -26 4 0 1 -7 -6 -16 -12 -14 -21 -14 -87 -4 -11 1 1 28
17 37 10 7 22 28 25 47 6 27 11 33 26 29 11 -3 24 -14 29 -24z m190 -13 c0
-35 -27 -56 -62 -48 -26 5 -22 19 14 57 36 39 48 37 48 -9z m-299 -192 c17
-21 13 -76 -8 -91 -20 -15 -52 -16 -73 -3 -13 9 -13 12 2 24 10 7 25 29 33 50
17 40 26 44 46 20z m-314 -26 c-3 -8 -6 -5 -6 6 -1 11 2 17 5 13 3 -3 4 -12 1
-19z m231 -220 c3 -29 -32 -78 -57 -78 -9 0 -27 -7 -39 -16 -21 -14 -22 -14
-22 10 0 15 10 35 25 48 13 11 30 36 36 55 10 32 12 33 32 20 12 -8 23 -25 25
-39z m-148 -53 c0 -8 -4 -15 -9 -15 -5 0 -17 -3 -27 -7 -16 -6 -15 -4 2 14 23
26 34 28 34 8z"/>
<path d="M21923 46564 c-6 -16 12 -34 35 -34 6 0 12 11 12 25 0 18 -5 25 -20
25 -11 0 -23 -7 -27 -16z"/>
<path d="M22675 46470 c3 -5 8 -10 11 -10 2 0 4 5 4 10 0 6 -5 10 -11 10 -5 0
-7 -4 -4 -10z"/>
<path d="M25940 46470 c0 -5 7 -10 15 -10 8 0 18 0 22 -1 4 0 9 4 11 10 2 6
-8 11 -22 11 -14 0 -26 -4 -26 -10z"/>
<path d="M21700 46454 c0 -5 14 -17 31 -26 25 -15 29 -22 23 -40 -7 -23 -6
-23 15 -4 19 17 25 18 61 6 29 -9 44 -10 51 -3 15 15 -2 24 -76 44 -33 10 -70
20 -82 24 -13 4 -23 3 -23 -1z"/>
<path d="M21516 46357 c3 -10 9 -15 12 -12 3 3 0 11 -7 18 -10 9 -11 8 -5 -6z"/>
<path d="M21719 46315 c41 -18 81 -21 64 -4 -7 7 -31 13 -55 15 l-43 4 34 -15z"/>
<path d="M21524 46251 c8 -12 95 -35 103 -27 3 3 -1 6 -9 6 -9 0 -21 7 -28 15
-13 16 -75 22 -66 6z"/>
<path d="M21760 46223 c0 -5 12 -15 26 -21 14 -7 23 -16 20 -21 -4 -5 -3 -16
0 -24 7 -19 34 -11 34 10 0 11 5 13 18 8 9 -5 32 -10 50 -13 24 -3 32 0 32 12
0 17 -33 38 -65 42 -11 1 -41 5 -67 9 -30 5 -48 4 -48 -2z"/>
<path d="M25035 46219 c-4 -6 -5 -13 -2 -16 7 -7 27 6 27 18 0 12 -17 12 -25
-2z"/>
<path d="M21645 46210 c3 -5 13 -10 21 -10 8 0 12 5 9 10 -3 6 -13 10 -21 10
-8 0 -12 -4 -9 -10z"/>
<path d="M25980 46159 c0 -5 5 -7 10 -4 6 3 10 8 10 11 0 2 -4 4 -10 4 -5 0
-10 -5 -10 -11z"/>
<path d="M21860 46150 c0 -5 5 -10 10 -10 6 0 10 5 10 10 0 6 -4 10 -10 10 -5
0 -10 -4 -10 -10z"/>
<path d="M21465 46140 c3 -5 8 -10 11 -10 2 0 4 5 4 10 0 6 -5 10 -11 10 -5 0
-7 -4 -4 -10z"/>
<path d="M21655 46120 c3 -5 10 -10 16 -10 5 0 9 5 9 10 0 6 -7 10 -16 10 -8
0 -12 -4 -9 -10z"/>
<path d="M21555 46110 c3 -5 13 -10 21 -10 8 0 14 5 14 10 0 6 -9 10 -21 10
-11 0 -17 -4 -14 -10z"/>
<path d="M21734 46099 c-16 -6 -15 -8 9 -14 21 -5 27 -13 25 -28 -2 -11 3 -22
10 -24 6 -3 12 3 12 12 0 11 7 15 23 13 16 -2 22 2 22 17 0 16 -9 21 -41 26
-23 3 -50 2 -60 -2z"/>
<path d="M21695 46070 c-3 -5 -2 -10 4 -10 5 0 13 5 16 10 3 6 2 10 -4 10 -5
0 -13 -4 -16 -10z"/>
<path d="M21550 46021 c0 -6 6 -11 13 -11 6 0 26 -7 42 -16 28 -15 111 -44
127 -44 5 0 6 10 5 22 -3 17 -12 22 -48 25 -43 4 -87 14 -121 28 -11 4 -18 3
-18 -4z"/>
<path d="M24810 45993 c0 -31 15 -61 25 -51 9 9 -5 78 -16 78 -5 0 -9 -12 -9
-27z"/>
<path d="M27780 46005 c7 -8 17 -15 22 -15 5 0 3 7 -6 15 -8 8 -18 15 -22 15
-3 0 -1 -7 6 -15z"/>
<path d="M25467 45946 c-4 -10 -5 -21 -2 -24 9 -9 17 6 13 25 -3 17 -4 17 -11
-1z"/>
<path d="M24756 45901 c-4 -7 -5 -15 -2 -18 9 -9 19 4 14 18 -4 11 -6 11 -12
0z"/>
<path d="M21585 45881 c-6 -10 43 -36 52 -28 8 9 -12 30 -32 33 -8 1 -17 -1
-20 -5z"/>
<path d="M25970 45846 c0 -9 5 -16 10 -16 6 0 10 4 10 9 0 6 -4 13 -10 16 -5
3 -10 -1 -10 -9z"/>
<path d="M21592 45788 c3 -7 13 -15 22 -16 12 -3 17 1 14 10 -3 7 -13 15 -22
16 -12 3 -17 -1 -14 -10z"/>
<path d="M21510 45680 c20 -13 33 -13 25 0 -3 6 -14 10 -23 10 -15 0 -15 -2
-2 -10z"/>
<path d="M21595 45650 c3 -5 13 -10 21 -10 8 0 14 5 14 10 0 6 -9 10 -21 10
-11 0 -17 -4 -14 -10z"/>
<path d="M21655 45630 c3 -5 10 -10 16 -10 5 0 9 5 9 10 0 6 -7 10 -16 10 -8
0 -12 -4 -9 -10z"/>
<path d="M21640 45551 c0 -11 39 -25 47 -18 3 3 2 10 -2 16 -8 13 -45 15 -45
2z"/>
<path d="M25691 45550 c-9 -5 -10 -15 -5 -31 4 -13 7 -30 6 -36 -4 -20 16 -15
28 6 22 42 3 81 -29 61z"/>
<path d="M25946 45534 c-4 -9 -4 -19 -2 -21 8 -8 26 8 26 23 0 19 -16 18 -24
-2z"/>
<path d="M21542 45529 c2 -7 10 -15 17 -17 8 -3 12 1 9 9 -2 7 -10 15 -17 17
-8 3 -12 -1 -9 -9z"/>
<path d="M21700 45485 c0 -8 5 -15 10 -15 6 0 10 7 10 15 0 8 -4 15 -10 15 -5
0 -10 -7 -10 -15z"/>
<path d="M21540 45431 c0 -12 29 -23 41 -15 5 3 7 10 4 15 -8 12 -45 12 -45 0z"/>
<path d="M21634 45411 c-11 -11 -1 -21 21 -21 14 0 25 -4 25 -10 0 -5 14 -10
30 -10 31 0 41 21 18 37 -13 8 -86 11 -94 4z"/>
<path d="M21805 45341 c-6 -11 9 -23 19 -14 9 9 7 23 -3 23 -6 0 -12 -4 -16
-9z"/>
<path d="M21561 45281 c-11 -7 -6 -13 18 -26 35 -18 61 -14 61 9 0 21 -53 33
-79 17z"/>
<path d="M25162 45274 c9 -9 21 -13 27 -9 16 10 3 25 -22 25 -20 0 -20 -1 -5
-16z"/>
<path d="M25206 45271 c-4 -7 -5 -15 -2 -18 9 -9 19 4 14 18 -4 11 -6 11 -12
0z"/>
<path d="M24920 45235 c0 -1 7 -19 16 -40 13 -31 18 -36 37 -30 64 21 91 17
138 -18 25 -20 51 -32 57 -28 11 7 25 38 35 81 6 24 5 25 -48 25 -30 0 -55 -3
-55 -7 0 -12 -35 -9 -47 3 -9 9 -133 22 -133 14z m252 -47 c-7 -7 -12 -8 -12
-2 0 14 12 26 19 19 2 -3 -1 -11 -7 -17z"/>
<path d="M21360 45170 c0 -5 5 -10 10 -10 6 0 10 5 10 10 0 6 -4 10 -10 10 -5
0 -10 -4 -10 -10z"/>
<path d="M25147 45053 c-11 -10 -8 -73 3 -73 6 0 10 18 10 40 0 41 -2 45 -13
33z"/>
<path d="M21690 45040 c-9 -6 -10 -10 -3 -10 6 0 15 5 18 10 8 12 4 12 -15 0z"/>
<path d="M21520 45022 c0 -12 40 -29 84 -37 23 -5 36 -3 36 4 0 16 -38 33 -60
26 -10 -3 -21 -1 -25 5 -7 12 -35 14 -35 2z"/>
<path d="M21657 45013 c-8 -14 12 -53 26 -53 9 0 14 11 14 30 0 22 -5 30 -18
30 -10 0 -20 -3 -22 -7z"/>
<path d="M21580 44870 c-8 -6 -28 -10 -45 -10 -29 0 -29 0 -10 -20 11 -11 35
-22 53 -26 29 -6 32 -4 32 17 0 34 -12 50 -30 39z"/>
<path d="M21550 44790 c0 -5 5 -10 10 -10 6 0 10 5 10 10 0 6 -4 10 -10 10 -5
0 -10 -4 -10 -10z"/>
<path d="M21700 44769 c0 -5 5 -7 10 -4 6 3 10 8 10 11 0 2 -4 4 -10 4 -5 0
-10 -5 -10 -11z"/>
<path d="M21368 44723 c7 -3 16 -2 19 1 4 3 -2 6 -13 5 -11 0 -14 -3 -6 -6z"/>
<path d="M21455 44690 c3 -5 8 -10 11 -10 2 0 4 5 4 10 0 6 -5 10 -11 10 -5 0
-7 -4 -4 -10z"/>
<path d="M21505 44670 c-8 -12 20 -24 35 -15 6 3 8 11 5 16 -8 12 -32 12 -40
-1z"/>
<path d="M21410 44526 c0 -8 31 -36 41 -36 15 0 10 27 -7 34 -18 7 -34 8 -34
2z"/>
<path d="M21617 44434 c-8 -8 1 -24 14 -24 5 0 9 7 9 15 0 15 -12 20 -23 9z"/>
<path d="M21360 44345 c0 -9 5 -15 11 -13 6 2 11 8 11 13 0 5 -5 11 -11 13 -6
2 -11 -4 -11 -13z"/>
<path d="M21714 44296 c-8 -22 3 -33 18 -18 9 9 9 15 0 24 -9 9 -13 7 -18 -6z"/>
<path d="M21385 44230 c-8 -13 11 -30 34 -30 8 0 19 -7 25 -15 13 -17 56 -10
56 10 0 23 -103 54 -115 35z"/>
<path d="M21505 44180 c-10 -16 15 -40 41 -40 29 0 32 25 5 40 -25 13 -38 13
-46 0z"/>
<path d="M21296 44173 c-7 -7 13 -33 25 -33 5 0 9 6 9 14 0 15 -24 28 -34 19z"/>
<path d="M21644 44119 c-11 -18 11 -32 25 -16 9 12 8 16 -3 20 -9 4 -18 1 -22
-4z"/>
<path d="M21333 44063 c-7 -2 -13 -13 -13 -22 0 -21 70 -46 102 -35 13 4 18 2
14 -4 -8 -13 20 -42 41 -42 12 0 14 7 8 38 -8 44 -22 62 -31 39 -5 -15 -11
-14 -52 8 -49 26 -50 26 -69 18z"/>
<path d="M21150 44031 c0 -6 5 -13 10 -16 6 -3 10 1 10 9 0 9 -4 16 -10 16 -5
0 -10 -4 -10 -9z"/>
<path d="M21220 43986 c0 -10 9 -16 21 -16 24 0 21 23 -4 28 -10 2 -17 -3 -17
-12z"/>
<path d="M21575 43940 c-8 -13 4 -32 16 -25 12 8 12 35 0 35 -6 0 -13 -4 -16
-10z"/>
<path d="M21625 43898 c-11 -24 -23 -26 -102 -13 -41 7 -43 6 -43 -17 0 -16 9
-29 25 -38 14 -7 25 -17 25 -22 0 -4 12 -8 26 -8 18 0 28 -6 31 -20 4 -16 11
-19 27 -14 11 4 23 8 25 10 4 3 17 71 23 119 4 28 -25 30 -37 3z"/>
<path d="M21240 43870 c0 -6 11 -15 24 -19 13 -5 26 -17 29 -25 4 -9 16 -16
27 -16 15 0 20 7 20 26 0 23 -3 26 -30 22 -20 -3 -30 0 -30 9 0 7 -9 13 -20
13 -11 0 -20 -5 -20 -10z"/>
<path d="M21076 43851 c-3 -5 1 -14 8 -20 16 -13 32 2 21 19 -8 12 -22 13 -29
1z"/>
<path d="M21374 43815 c-9 -23 3 -45 25 -45 23 0 32 18 19 43 -11 21 -37 22
-44 2z"/>
<path d="M21160 43810 c-12 -7 -12 -12 -2 -22 9 -9 15 -9 24 0 16 16 -2 34
-22 22z"/>
<path d="M20940 43800 c0 -5 5 -10 11 -10 5 0 7 5 4 10 -3 6 -8 10 -11 10 -2
0 -4 -4 -4 -10z"/>
<path d="M21504 43756 c-8 -22 1 -30 21 -19 15 9 15 11 1 22 -13 11 -17 10
-22 -3z"/>
<path d="M21550 43731 c0 -12 -6 -21 -14 -21 -8 0 -17 -10 -19 -22 -4 -19 -5
-18 -6 6 -1 23 -4 27 -18 21 -10 -5 -32 -10 -50 -13 -18 -2 -38 -11 -45 -19
-11 -13 -9 -18 12 -32 13 -9 32 -24 42 -33 15 -15 18 -15 30 -1 11 14 13 13
18 -8 4 -18 14 -25 38 -27 l32 -3 2 65 c1 36 2 74 2 83 1 9 -5 18 -11 21 -8 2
-13 -5 -13 -17z"/>
<path d="M21198 43689 c-26 -14 -22 -25 14 -43 35 -18 47 -19 66 -8 19 13 3
42 -22 42 -12 0 -26 4 -31 9 -6 6 -17 6 -27 0z"/>
<path d="M21000 43653 c0 -5 5 -15 10 -23 7 -11 12 -12 21 -3 6 6 8 16 5 22
-8 12 -36 15 -36 4z"/>
<path d="M21294 43625 c-7 -18 13 -45 33 -45 19 0 28 27 13 45 -16 19 -39 19
-46 0z"/>
<path d="M21092 43604 c1 -9 9 -19 16 -22 9 -3 13 2 10 14 -1 9 -9 19 -16 22
-9 3 -13 -2 -10 -14z"/>
<path d="M20870 43600 c0 -5 5 -10 10 -10 6 0 10 5 10 10 0 6 -4 10 -10 10 -5
0 -10 -4 -10 -10z"/>
<path d="M21120 43486 c0 -19 43 -66 59 -66 20 0 41 27 35 44 -3 9 -22 20 -42
26 -48 13 -52 13 -52 -4z"/>
<path d="M21231 43453 c-17 -60 -14 -73 14 -73 30 0 43 25 27 50 -7 12 -7 21
0 28 6 6 7 15 4 21 -14 22 -35 10 -45 -26z"/>
<path d="M20935 43460 c-8 -12 20 -24 35 -15 6 3 8 11 5 16 -8 12 -32 12 -40
-1z"/>
<path d="M20730 43451 c0 -6 5 -13 10 -16 6 -3 10 1 10 9 0 9 -4 16 -10 16 -5
0 -10 -4 -10 -9z"/>
<path d="M20580 43411 c0 -5 5 -13 10 -16 6 -3 10 -2 10 4 0 5 -4 13 -10 16
-5 3 -10 2 -10 -4z"/>
<path d="M21010 43400 c0 -15 7 -20 26 -20 20 0 25 4 20 16 -3 9 -6 18 -6 20
0 2 -9 4 -20 4 -13 0 -20 -7 -20 -20z"/>
<path d="M20800 43395 c0 -9 5 -15 11 -13 6 2 11 8 11 13 0 5 -5 11 -11 13 -6
2 -11 -4 -11 -13z"/>
<path d="M21350 43351 c0 -6 5 -13 10 -16 6 -3 10 1 10 9 0 9 -4 16 -10 16 -5
0 -10 -4 -10 -9z"/>
<path d="M21390 43320 c-8 -5 -22 -7 -32 -4 -9 2 -19 0 -23 -6 -4 -6 -20 -8
-41 -4 -29 5 -35 3 -45 -20 -11 -24 -9 -30 17 -57 20 -21 36 -29 51 -26 24 4
36 -13 27 -38 -4 -8 -1 -15 5 -15 6 0 11 5 11 10 0 6 11 15 25 20 20 7 25 17
25 42 1 18 7 44 15 58 8 14 14 31 15 38 0 14 -29 16 -50 2z"/>
<path d="M21040 43271 c0 -11 12 -29 27 -41 l28 -21 17 21 c33 40 18 60 -43
60 -22 0 -29 -5 -29 -19z"/>
<path d="M20859 43269 c-11 -6 -11 -13 -3 -26 15 -25 38 -23 42 3 3 24 -18 37
-39 23z"/>
<path d="M21170 43265 c0 -8 -4 -15 -9 -15 -5 0 -14 -14 -20 -32 -13 -35 -3
-52 25 -46 16 3 19 13 19 56 0 28 -3 52 -7 52 -5 0 -8 -7 -8 -15z"/>
<path d="M20647 43254 c-8 -8 1 -24 14 -24 5 0 9 7 9 15 0 15 -12 20 -23 9z"/>
<path d="M20932 43213 c-13 -25 -4 -43 19 -43 16 0 20 6 17 27 -4 32 -23 41
-36 16z"/>
<path d="M20727 43204 c-8 -8 1 -24 14 -24 5 0 9 7 9 15 0 15 -12 20 -23 9z"/>
<path d="M20510 43190 c0 -5 7 -10 16 -10 8 0 12 5 9 10 -3 6 -10 10 -16 10
-5 0 -9 -4 -9 -10z"/>
<path d="M21255 43160 c-7 -12 2 -30 16 -30 5 0 9 9 9 20 0 21 -15 27 -25 10z"/>
<path d="M20969 43079 c-18 -11 4 -57 33 -68 18 -7 27 -4 41 12 l18 22 -4 -33
c-4 -35 13 -58 38 -48 26 10 18 68 -12 90 -30 22 -96 37 -114 25z"/>
<path d="M20760 43062 c0 -28 25 -56 44 -49 22 9 20 44 -3 57 -29 15 -41 12
-41 -8z"/>
<path d="M20572 43039 c1 -13 8 -23 13 -21 15 3 12 35 -3 40 -9 3 -13 -3 -10
-19z"/>
<path d="M20855 43000 c-8 -24 1 -40 21 -40 20 0 29 27 14 45 -17 20 -27 19
-35 -5z"/>
<path d="M20440 42975 c0 -8 5 -15 10 -15 6 0 10 7 10 15 0 8 -4 15 -10 15 -5
0 -10 -7 -10 -15z"/>
<path d="M20642 42978 c6 -18 28 -21 28 -4 0 9 -7 16 -16 16 -9 0 -14 -5 -12
-12z"/>
<path d="M21187 42945 c-4 -8 -2 -17 3 -20 6 -4 10 -4 10 -1 0 2 3 11 6 20 3
9 2 16 -4 16 -5 0 -12 -7 -15 -15z"/>
<path d="M20884 42865 c-4 -9 -1 -29 6 -45 14 -35 44 -40 60 -10 18 33 31 23
28 -22 -3 -37 0 -43 17 -43 48 0 23 73 -37 111 -43 28 -66 30 -74 9z"/>
<path d="M20690 42832 c0 -36 18 -56 37 -41 16 14 17 41 1 57 -21 21 -38 14
-38 -16z"/>
<path d="M21005 42850 c-3 -5 -1 -10 4 -10 6 0 11 5 11 10 0 6 -2 10 -4 10 -3
0 -8 -4 -11 -10z"/>
<path d="M20494 42816 c-4 -10 -2 -22 4 -28 8 -8 13 -7 18 6 4 10 2 22 -4 28
-8 8 -13 7 -18 -6z"/>
<path d="M20285 42801 c-3 -5 -1 -12 5 -16 5 -3 10 1 10 9 0 18 -6 21 -15 7z"/>
<path d="M20776 42781 c-19 -21 -14 -41 10 -41 19 0 28 24 17 45 -8 14 -11 14
-27 -4z"/>
<path d="M20567 42764 c-8 -8 1 -24 14 -24 5 0 9 7 9 15 0 15 -12 20 -23 9z"/>
<path d="M20156 42741 c-4 -7 -5 -15 -2 -18 9 -9 19 4 14 18 -4 11 -6 11 -12
0z"/>
<path d="M21090 42711 c0 -14 -11 -23 -37 -32 -80 -25 -83 -51 -12 -110 59
-49 78 -46 94 17 6 21 13 44 16 49 18 32 3 85 -16 55 -9 -15 -25 -2 -25 21 0
10 -4 19 -10 19 -5 0 -10 -9 -10 -19z"/>
<path d="M20814 42652 c-18 -12 -24 -42 -14 -63 13 -24 56 -25 64 -1 3 9 8 22
11 28 7 13 -21 44 -38 44 -7 0 -17 -4 -23 -8z"/>
<path d="M20606 42632 c-9 -15 10 -67 26 -70 19 -4 31 47 16 66 -12 14 -34 16
-42 4z"/>
<path d="M23570 42625 c-7 -9 -8 -15 -2 -15 5 0 12 7 16 15 3 8 4 15 2 15 -2
0 -9 -7 -16 -15z"/>
<path d="M23940 42629 c0 -5 5 -7 10 -4 6 3 10 8 10 11 0 2 -4 4 -10 4 -5 0
-10 -5 -10 -11z"/>
<path d="M20410 42586 c0 -17 5 -26 16 -26 10 0 14 7 12 22 -5 32 -28 35 -28
4z"/>
<path d="M20887 42584 c-12 -13 -7 -52 7 -57 18 -7 39 17 34 40 -3 18 -29 29
-41 17z"/>
<path d="M20207 42573 c-3 -5 -2 -15 2 -22 7 -10 10 -10 16 -1 4 6 3 16 -3 22
-5 5 -12 6 -15 1z"/>
<path d="M20690 42565 c-15 -18 -6 -45 15 -45 9 0 15 9 15 24 0 31 -14 40 -30
21z"/>
<path d="M20485 42540 c-3 -11 -3 -25 0 -30 10 -16 35 8 35 31 0 25 -27 24
-35 -1z"/>
<path d="M20065 42510 c-4 -6 -3 -16 3 -22 6 -6 12 -6 17 2 4 6 3 16 -3 22 -6
6 -12 6 -17 -2z"/>
<path d="M20985 42510 c-8 -13 4 -32 16 -25 12 8 12 35 0 35 -6 0 -13 -4 -16
-10z"/>
<path d="M20710 42409 c-9 -16 -8 -26 5 -45 19 -29 23 -30 52 -2 24 22 31 11
13 -21 -12 -24 11 -57 34 -48 19 8 22 64 3 87 -19 24 -60 50 -79 50 -9 0 -22
-9 -28 -21z"/>
<path d="M20524 42412 c-5 -4 -10 -20 -10 -37 1 -23 6 -31 22 -33 16 -2 23 3
27 24 3 16 -1 33 -8 41 -16 15 -16 15 -31 5z"/>
<path d="M20316 42372 c-8 -24 3 -54 18 -49 15 5 14 59 -1 64 -6 2 -14 -5 -17
-15z"/>
<path d="M14750 42355 c0 -8 4 -15 9 -15 5 0 17 -3 26 -6 15 -6 15 -4 4 15
-16 24 -39 28 -39 6z"/>
<path d="M20597 42339 c-16 -39 -5 -68 19 -48 16 13 18 47 5 68 -7 11 -13 7
-24 -20z"/>
<path d="M20105 42340 c-3 -6 1 -13 10 -16 19 -8 30 0 20 15 -8 14 -22 14 -30
1z"/>
<path d="M20392 42318 c-7 -7 -12 -18 -12 -25 0 -18 29 -16 37 3 8 21 -10 37
-25 22z"/>
<path d="M20185 42297 c-4 -10 -5 -21 -1 -24 10 -10 18 4 13 24 -4 17 -4 17
-12 0z"/>
<path d="M19977 42276 c-6 -15 1 -26 15 -26 4 0 8 9 8 20 0 23 -15 27 -23 6z"/>
<path d="M20900 42274 c0 -8 5 -12 10 -9 6 3 10 10 10 16 0 5 -4 9 -10 9 -5 0
-10 -7 -10 -16z"/>
<path d="M21001 42240 c-19 -5 -41 -6 -50 -3 -14 4 -14 4 -1 -6 21 -15 63 -14
86 4 21 16 15 17 -35 5z"/>
<path d="M20852 42223 c-26 -3 -36 -11 -47 -36 -12 -29 -12 -34 7 -54 25 -27
53 -19 104 32 29 29 33 39 24 50 -12 15 -23 16 -88 8z"/>
<path d="M23440 42205 c-7 -8 -8 -15 -2 -15 5 0 15 7 22 15 7 8 8 15 2 15 -5
0 -15 -7 -22 -15z"/>
<path d="M20609 42179 c-8 -16 -8 -28 0 -45 13 -30 51 -32 58 -4 3 11 9 20 14
20 13 0 11 -34 -2 -47 -15 -15 -3 -33 21 -33 13 0 22 10 29 33 8 29 6 35 -28
64 -42 38 -75 42 -92 12z"/>
<path d="M20710 42190 c8 -5 20 -10 25 -10 6 0 3 5 -5 10 -8 5 -19 10 -25 10
-5 0 -3 -5 5 -10z"/>
<path d="M20406 42165 c-7 -29 10 -68 27 -62 7 2 19 15 27 29 12 22 12 29 1
42 -20 24 -48 20 -55 -9z"/>
<path d="M20216 42154 c-10 -27 -7 -52 8 -57 19 -8 26 1 26 34 0 30 -25 47
-34 23z"/>
<path d="M20483 42110 c-2 -51 10 -63 35 -38 25 25 9 88 -22 88 -6 0 -12 -23
-13 -50z"/>
<path d="M20016 42113 c-9 -22 12 -43 23 -24 10 15 4 41 -9 41 -4 0 -11 -8
-14 -17z"/>
<path d="M19811 42084 c0 -11 3 -14 6 -6 3 7 2 16 -1 19 -3 4 -6 -2 -5 -13z"/>
<path d="M20287 42078 c-7 -27 -3 -32 18 -25 19 8 20 47 1 47 -7 0 -16 -10
-19 -22z"/>
<path d="M20085 42059 c-8 -23 -1 -34 14 -24 13 8 15 45 2 45 -5 0 -13 -9 -16
-21z"/>
<path d="M19881 42046 c-11 -13 -11 -20 -3 -28 15 -15 24 -5 20 23 -3 21 -4
21 -17 5z"/>
<path d="M23185 41991 c-3 -5 -1 -12 5 -16 5 -3 10 1 10 9 0 18 -6 21 -15 7z"/>
<path d="M20505 41956 c-13 -19 -14 -29 -5 -45 13 -26 16 -26 50 2 16 12 41
32 57 44 15 13 23 23 16 23 -6 0 -15 -4 -18 -10 -3 -5 -15 -10 -26 -10 -11 0
-17 5 -14 10 14 23 -45 9 -60 -14z"/>
<path d="M20310 41950 c-18 -34 -9 -74 18 -78 16 -3 22 2 22 16 0 17 18 32 37
32 6 0 -1 -48 -12 -72 -8 -21 14 -25 33 -6 22 22 12 51 -30 90 -48 44 -53 45
-68 18z"/>
<path d="M20115 41914 c-21 -22 -15 -48 13 -52 19 -3 22 1 22 27 0 37 -13 46
-35 25z"/>
<path d="M19912 41879 c-2 -30 1 -40 10 -37 18 6 23 78 6 78 -8 0 -14 -15 -16
-41z"/>
<path d="M20179 41853 c-10 -28 1 -50 20 -39 14 9 14 66 1 66 -6 0 -15 -12
-21 -27z"/>
<path d="M19705 41860 c-7 -12 2 -30 16 -30 5 0 9 9 9 20 0 21 -15 27 -25 10z"/>
<path d="M19985 41829 c-8 -23 -1 -34 14 -24 13 8 15 45 2 45 -5 0 -13 -9 -16
-21z"/>
<path d="M19780 41823 c0 -6 -3 -18 -6 -27 -3 -9 -1 -16 5 -16 17 0 25 30 12
43 -8 8 -11 8 -11 0z"/>
<path d="M22900 41811 c0 -25 6 -27 13 -6 4 8 2 17 -3 20 -6 4 -10 -3 -10 -14z"/>
<path d="M20005 41693 c-18 -40 -16 -63 4 -63 21 0 31 18 31 56 0 28 -24 33
-35 7z"/>
<path d="M19796 41654 c-8 -31 8 -54 25 -37 13 13 8 55 -7 60 -7 2 -15 -8 -18
-23z"/>
<path d="M22200 41650 c0 -5 5 -10 10 -10 6 0 10 5 10 10 0 6 -4 10 -10 10 -5
0 -10 -4 -10 -10z"/>
<path d="M22621 41631 c-8 -6 -9 -11 -3 -15 6 -3 14 -1 17 5 9 14 2 20 -14 10z"/>
<path d="M19595 41617 c-4 -10 -5 -21 -1 -24 10 -10 18 4 13 24 -4 17 -4 17
-12 0z"/>
<path d="M19386 41595 c-8 -22 3 -40 16 -27 7 7 7 16 1 27 -9 16 -10 16 -17 0z"/>
<path d="M19665 41600 c3 -5 8 -10 11 -10 2 0 4 5 4 10 0 6 -5 10 -11 10 -5 0
-7 -4 -4 -10z"/>
<path d="M19862 41588 c-16 -16 -15 -28 3 -28 8 0 19 9 25 20 8 15 8 20 -3 20
-7 0 -18 -5 -25 -12z"/>
<path d="M19655 41570 c-8 -13 4 -32 16 -25 12 8 12 35 0 35 -6 0 -13 -4 -16
-10z"/>
<path d="M19455 41541 c-3 -5 -1 -12 5 -16 5 -3 10 1 10 9 0 18 -6 21 -15 7z"/>
<path d="M21930 41500 c0 -5 5 -10 10 -10 6 0 10 5 10 10 0 6 -4 10 -10 10 -5
0 -10 -4 -10 -10z"/>
<path d="M22325 41450 c-7 -12 2 -30 16 -30 12 0 12 27 0 35 -5 3 -12 1 -16
-5z"/>
<path d="M19272 41359 c-7 -11 -11 -24 -8 -27 10 -9 28 15 24 32 -2 14 -5 13
-16 -5z"/>
<path d="M22052 41306 c1 -10 8 -17 13 -17 15 1 12 24 -3 29 -9 3 -13 -2 -10
-12z"/>
<path d="M18850 41290 c0 -5 5 -10 10 -10 6 0 10 5 10 10 0 6 -4 10 -10 10 -5
0 -10 -4 -10 -10z"/>
<path d="M21725 41120 c-7 -12 2 -30 16 -30 5 0 9 9 9 20 0 21 -15 27 -25 10z"/>
<path d="M21461 40974 c0 -11 3 -14 6 -6 3 7 2 16 -1 19 -3 4 -6 -2 -5 -13z"/>
<path d="M20733 40933 c-15 -5 -17 -23 -4 -23 5 0 11 7 15 15 3 8 4 15 3 14
-1 0 -8 -3 -14 -6z"/>
<path d="M20440 40820 c0 -5 4 -10 9 -10 6 0 13 5 16 10 3 6 -1 10 -9 10 -9 0
-16 -4 -16 -10z"/>
<path d="M13460 40800 c0 -5 5 -10 10 -10 6 0 10 5 10 10 0 6 -4 10 -10 10 -5
0 -10 -4 -10 -10z"/>
<path d="M20840 40705 c0 -8 5 -15 10 -15 6 0 10 7 10 15 0 8 -4 15 -10 15 -5
0 -10 -7 -10 -15z"/>
<path d="M13534 40636 c-10 -27 2 -43 14 -19 8 14 9 24 2 28 -6 3 -13 -1 -16
-9z"/>
<path d="M20490 40590 c-12 -8 -11 -10 8 -10 12 0 22 5 22 10 0 13 -11 13 -30
0z"/>
<path d="M13573 40493 c-13 -9 -23 -22 -23 -31 0 -10 8 -6 26 13 29 32 28 39
-3 18z"/>
<path d="M20168 40453 c7 -3 16 -2 19 1 4 3 -2 6 -13 5 -11 0 -14 -3 -6 -6z"/>
<path d="M16607 40394 c-12 -13 3 -21 29 -16 19 3 22 7 12 13 -16 10 -32 11
-41 3z"/>
<path d="M13420 40371 c0 -26 16 -35 24 -15 10 25 7 34 -9 34 -8 0 -15 -9 -15
-19z"/>
<path d="M16340 40365 c-7 -8 -21 -15 -31 -15 -10 0 -21 -5 -25 -11 -5 -9 4
-10 32 -4 47 8 54 12 54 31 0 18 -14 18 -30 -1z"/>
<path d="M17135 40360 c-3 -5 1 -10 9 -10 8 0 18 5 21 10 3 6 -1 10 -9 10 -8
0 -18 -4 -21 -10z"/>
<path d="M13365 40350 c-3 -5 -1 -10 4 -10 6 0 11 5 11 10 0 6 -2 10 -4 10 -3
0 -8 -4 -11 -10z"/>
<path d="M16995 40350 c-16 -7 -13 -9 18 -9 20 -1 37 4 37 9 0 12 -27 12 -55
0z"/>
<path d="M15570 40340 c0 -5 9 -10 19 -10 11 0 23 5 26 10 4 6 -5 10 -19 10
-14 0 -26 -4 -26 -10z"/>
<path d="M13523 40263 c-18 -7 -17 -63 1 -63 13 0 26 28 26 58 0 13 -6 14 -27
5z"/>
<path d="M13450 40241 c0 -6 5 -13 10 -16 6 -3 10 1 10 9 0 9 -4 16 -10 16 -5
0 -10 -4 -10 -9z"/>
<path d="M13315 40110 c-3 -5 -1 -10 4 -10 6 0 11 5 11 10 0 6 -2 10 -4 10 -3
0 -8 -4 -11 -10z"/>
<path d="M13501 39973 c-7 -18 -17 -30 -22 -27 -5 3 -9 -3 -9 -14 0 -20 -42
-72 -59 -72 -5 0 -19 -13 -31 -30 l-21 -30 28 -37 c15 -21 31 -39 36 -41 4 -2
7 -14 7 -27 0 -17 6 -25 22 -27 14 -2 29 -16 40 -38 21 -44 22 -60 3 -60 -26
0 -17 -39 14 -54 35 -19 42 -43 25 -86 -12 -28 -12 -31 1 -26 8 3 15 1 15 -5
0 -6 -8 -9 -17 -8 -41 4 -52 -2 -58 -32 -4 -19 -18 -37 -36 -48 -33 -19 -49
-56 -49 -116 0 -29 -6 -47 -20 -60 -11 -10 -17 -22 -14 -27 9 -14 -16 -38 -41
-38 -14 0 -31 -12 -46 -35 -20 -28 -32 -36 -69 -40 -25 -3 -53 -10 -62 -16
-10 -5 -25 -9 -34 -9 -29 0 -10 -35 26 -46 21 -7 40 -22 48 -38 12 -24 18 -26
44 -21 29 7 30 6 26 -19 -7 -37 3 -32 34 17 65 99 86 126 144 178 76 67 90 89
75 117 -21 39 -13 80 23 119 18 21 31 44 29 51 -3 7 3 24 12 38 16 24 15 33
-11 162 -20 101 -29 182 -33 307 -5 156 -7 167 -20 138z"/>
<path d="M13393 39964 c-36 -15 -42 -31 -16 -41 10 -4 23 2 34 15 9 12 22 22
28 22 6 0 11 5 11 10 0 13 -18 11 -57 -6z"/>
<path d="M17588 39583 c-10 -2 -18 -13 -18 -23 0 -11 -10 -20 -25 -24 -14 -4
-25 -11 -25 -16 0 -6 -7 -10 -15 -10 -9 0 -18 -7 -21 -15 -3 -8 -13 -17 -22
-20 -10 -2 -23 -14 -30 -26 -19 -30 3 -50 65 -60 26 -4 73 -15 103 -23 30 -9
78 -16 106 -16 48 0 52 2 64 30 7 17 9 42 6 57 -4 16 -10 40 -13 55 -3 16 -23
42 -48 63 -42 34 -76 42 -127 28z m52 -93 c0 -5 -4 -10 -10 -10 -5 0 -10 5
-10 10 0 6 5 10 10 10 6 0 10 -4 10 -10z"/>
<path d="M13050 39550 c0 -5 5 -10 10 -10 6 0 10 5 10 10 0 6 -4 10 -10 10 -5
0 -10 -4 -10 -10z"/>
<path d="M13127 39531 c-5 -22 1 -33 14 -25 12 7 12 44 0 44 -5 0 -11 -9 -14
-19z"/>
<path d="M13403 39408 c-6 -7 -14 -23 -17 -35 -6 -20 -4 -23 17 -23 18 0 26 6
29 25 6 30 -14 52 -29 33z"/>
<path d="M13180 39366 c0 -9 5 -16 10 -16 6 0 10 4 10 9 0 6 -4 13 -10 16 -5
3 -10 -1 -10 -9z"/>
<path d="M13240 39339 c-7 -11 -9 -28 -5 -37 5 -15 9 -14 25 7 17 24 17 51 -1
51 -4 0 -13 -9 -19 -21z"/>
<path d="M13077 39304 c-11 -11 -8 -44 3 -44 15 0 24 30 13 41 -5 5 -12 6 -16
3z"/>
<path d="M14164 39245 c-10 -8 -14 -14 -9 -15 15 0 40 18 34 24 -3 3 -14 -1
-25 -9z"/>
<path d="M13256 39184 c-4 -9 -4 -19 -2 -21 8 -8 26 8 26 23 0 19 -16 18 -24
-2z"/>
<path d="M13306 39148 c-18 -35 -16 -41 8 -32 10 4 16 17 16 35 0 37 -5 37
-24 -3z"/>
<path d="M13110 39109 c0 -5 5 -7 10 -4 6 3 10 8 10 11 0 2 -4 4 -10 4 -5 0
-10 -5 -10 -11z"/>
<path d="M15265 38986 c-43 -19 -105 -83 -105 -109 0 -12 -9 -28 -20 -35 -14
-8 -20 -23 -20 -48 0 -31 3 -36 20 -31 16 4 22 -2 31 -36 23 -86 26 -90 65
-84 20 3 42 14 48 23 12 15 15 14 35 -15 13 -19 20 -38 16 -50 -5 -16 1 -20
41 -26 38 -5 49 -4 56 9 5 9 20 16 33 16 30 0 65 32 65 60 0 11 9 25 20 32 25
16 26 55 4 128 -22 75 -38 96 -103 134 -67 39 -141 52 -186 32z"/>
<path d="M12990 38986 c0 -2 7 -9 15 -16 12 -10 15 -10 15 4 0 9 -7 16 -15 16
-8 0 -15 -2 -15 -4z"/>
<path d="M13190 38807 c0 -14 -4 -29 -10 -32 -13 -8 -13 -25 0 -25 11 0 25 68
16 77 -3 4 -6 -5 -6 -20z"/>
<path d="M13216 38813 c-3 -3 -6 -13 -6 -22 -1 -9 -9 -34 -20 -56 -30 -61 -24
-88 6 -30 32 61 45 103 35 110 -5 2 -11 2 -15 -2z"/>
<path d="M15125 38717 c-4 -10 -5 -21 -1 -24 10 -10 18 4 13 24 -4 17 -4 17
-12 0z"/>
<path d="M13130 38701 c0 -5 5 -13 10 -16 6 -3 10 -2 10 4 0 5 -4 13 -10 16
-5 3 -10 2 -10 -4z"/>
<path d="M13023 38654 c-43 -25 -55 -44 -30 -44 16 0 97 69 82 69 -5 1 -29
-11 -52 -25z"/>
<path d="M15130 38670 c0 -5 5 -10 10 -10 6 0 10 5 10 10 0 6 -4 10 -10 10 -5
0 -10 -4 -10 -10z"/>
<path d="M12950 38610 c-17 -10 -65 -34 -97 -49 -29 -13 -29 -27 1 -46 20 -13
29 -14 47 -5 15 9 18 14 9 20 -8 5 0 14 24 29 21 13 36 31 36 42 0 21 1 21
-20 9z"/>
<path d="M12783 38499 c-7 -7 -13 -22 -13 -33 0 -19 1 -19 16 -4 9 8 14 23 12
32 -2 14 -5 15 -15 5z"/>
<path d="M14668 38024 c-5 -4 -8 -16 -8 -28 0 -14 3 -17 11 -9 6 6 9 19 7 28
-1 9 -6 13 -10 9z"/>
<path d="M14550 37811 c0 -16 31 -42 41 -35 6 4 3 14 -7 25 -18 20 -34 25 -34
10z"/>
<path d="M12816 37791 c-9 -10 -36 -22 -59 -26 -47 -7 -165 -97 -204 -155 -22
-31 -23 -40 -17 -149 3 -64 12 -143 19 -176 7 -33 16 -101 20 -150 3 -50 11
-109 17 -130 5 -22 12 -65 14 -95 8 -134 18 -207 30 -230 l12 -25 21 45 c11
25 21 55 21 66 0 12 7 35 15 50 8 16 15 41 15 56 0 15 11 48 25 74 14 26 25
56 25 66 0 11 5 29 11 41 7 12 11 35 11 52 -1 16 5 54 14 82 8 29 17 97 19
150 3 54 8 106 11 116 3 10 12 68 19 130 7 62 19 133 28 160 14 44 14 47 -3
47 -11 0 -22 5 -25 10 -9 15 -20 12 -39 -9z"/>
<path d="M24780 37800 c0 -5 7 -10 15 -10 8 0 15 5 15 10 0 6 -7 10 -15 10 -8
0 -15 -4 -15 -10z"/>
<path d="M22903 37763 c-18 -7 -16 -33 2 -33 8 0 15 2 15 4 0 2 3 11 6 20 6
16 0 19 -23 9z"/>
<path d="M22574 37749 c-3 -6 -2 -15 4 -21 13 -13 32 -2 32 18 0 16 -26 19
-36 3z"/>
<path d="M22264 37679 c-11 -18 13 -34 31 -19 8 7 15 16 15 21 0 13 -38 11
-46 -2z"/>
<path d="M14581 37664 c0 -11 3 -14 6 -6 3 7 2 16 -1 19 -3 4 -6 -2 -5 -13z"/>
<path d="M21956 37637 c-11 -8 -15 -19 -10 -30 8 -22 20 -22 28 1 3 9 9 23 12
30 7 16 -7 16 -30 -1z"/>
<path d="M24680 37595 c-10 -12 -9 -16 4 -21 18 -7 49 13 40 27 -8 14 -30 11
-44 -6z"/>
<path d="M21750 37555 c0 -17 5 -25 13 -22 6 2 12 12 12 22 0 10 -6 20 -12 23
-8 2 -13 -6 -13 -23z"/>
<path d="M21344 37469 c-8 -13 25 -24 37 -12 7 7 3 12 -10 16 -12 3 -24 1 -27
-4z"/>
<path d="M22308 37463 c7 -3 16 -2 19 1 4 3 -2 6 -13 5 -11 0 -14 -3 -6 -6z"/>
<path d="M22480 37450 c0 -5 9 -10 20 -10 11 0 20 5 20 10 0 6 -9 10 -20 10
-11 0 -20 -4 -20 -10z"/>
<path d="M21016 37411 c-4 -6 -3 -19 3 -28 9 -17 10 -17 17 0 8 21 -10 45 -20
28z"/>
<path d="M22145 37371 c-3 -5 -1 -12 5 -16 5 -3 10 1 10 9 0 18 -6 21 -15 7z"/>
<path d="M20665 37350 c-9 -15 3 -30 20 -24 23 9 27 34 5 34 -10 0 -22 -4 -25
-10z"/>
<path d="M24857 37316 l-28 -12 36 -20 36 -19 19 25 c11 14 20 28 20 33 0 11
-52 7 -83 -7z"/>
<path d="M21650 37284 c0 -31 23 -28 28 4 2 15 -2 22 -12 22 -11 0 -16 -9 -16
-26z"/>
<path d="M20323 37283 c-15 -5 -18 -53 -4 -53 14 0 41 41 35 52 -6 9 -12 9
-31 1z"/>
<path d="M22760 37234 c-25 -7 -35 -13 -24 -13 12 -1 27 -8 35 -17 8 -10 21
-13 36 -9 14 3 23 1 23 -6 0 -8 4 -8 15 1 8 7 15 23 15 36 0 20 -5 24 -27 23
-16 -1 -48 -7 -73 -15z"/>
<path d="M19947 37234 c-11 -12 3 -24 29 -24 27 0 32 15 8 24 -20 8 -29 8 -37
0z"/>
<path d="M21300 37215 c0 -8 5 -15 10 -15 6 0 10 7 10 15 0 8 -4 15 -10 15 -5
0 -10 -7 -10 -15z"/>
<path d="M19615 37160 c-3 -11 -11 -20 -16 -20 -5 0 -9 -7 -9 -15 0 -8 4 -15
9 -15 14 0 41 30 41 45 0 23 -18 27 -25 5z"/>
<path d="M20920 37140 c0 -11 7 -20 15 -20 8 0 15 9 15 20 0 11 -7 20 -15 20
-8 0 -15 -9 -15 -20z"/>
<path d="M19187 37124 c-14 -14 -7 -35 11 -32 9 2 17 10 17 17 0 16 -18 25
-28 15z"/>
<path d="M20528 37083 c-10 -2 -18 -11 -18 -19 0 -22 44 -14 48 9 4 17 1 18
-30 10z"/>
<path d="M20143 36988 c2 -7 10 -13 17 -13 7 0 15 6 18 13 2 7 -5 12 -18 12
-13 0 -20 -5 -17 -12z"/>
<path d="M21582 36991 c-11 -7 -10 -10 3 -15 19 -7 35 0 35 15 0 11 -20 12
-38 0z"/>
<path d="M19737 36953 c-10 -10 -8 -41 2 -48 17 -10 33 31 17 44 -7 6 -16 8
-19 4z"/>
<path d="M19390 36903 c1 -19 22 -53 34 -53 4 0 6 15 4 32 -3 36 -38 55 -38
21z"/>
<path d="M15570 36862 c-20 -9 -54 -37 -75 -61 -50 -56 -108 -109 -149 -137
-29 -20 -51 -27 -118 -41 -16 -3 -28 -9 -28 -13 0 -5 -12 -10 -27 -12 -31 -3
-35 -21 -7 -27 10 -2 36 -15 58 -29 23 -14 57 -27 76 -28 19 -1 55 -8 80 -14
51 -14 108 -14 125 0 7 5 20 27 31 47 10 21 24 45 31 53 11 15 26 41 109 198
l44 82 -57 -1 c-32 0 -74 -8 -93 -17z"/>
<path d="M16425 36798 c-2 -7 -9 -32 -15 -55 -6 -23 -15 -45 -20 -48 -6 -3
-10 -20 -10 -37 l0 -32 50 52 c28 29 50 56 50 60 0 5 9 17 20 27 21 19 21 19
-22 32 -53 16 -48 15 -53 1z"/>
<path d="M17575 36640 c-35 -4 -45 -8 -33 -14 9 -4 34 -5 55 -2 21 3 42 5 46
6 5 0 5 5 2 10 -3 6 -9 9 -13 8 -4 0 -29 -4 -57 -8z"/>
<path d="M17676 36641 c-4 -5 3 -7 14 -4 23 6 26 13 6 13 -8 0 -17 -4 -20 -9z"/>
<path d="M17772 36643 c-20 -3 -31 -9 -29 -16 3 -7 11 -11 18 -9 7 2 25 3 39
2 14 0 39 -1 55 0 17 0 54 0 83 0 30 -1 52 3 52 10 0 6 -28 10 -67 11 -38 0
-79 2 -93 3 -14 2 -40 1 -58 -1z"/>
<path d="M18070 36620 c-51 -6 -32 -16 35 -19 21 -1 44 -6 50 -11 6 -5 21 -7
33 -3 l23 6 -24 12 c-33 17 -65 21 -117 15z"/>
<path d="M18220 36610 c0 -5 12 -10 26 -10 14 0 23 4 19 10 -3 6 -15 10 -26
10 -10 0 -19 -4 -19 -10z"/>
<path d="M18288 36603 c6 -2 18 -2 25 0 6 3 1 5 -13 5 -14 0 -19 -2 -12 -5z"/>
<path d="M18498 36603 c6 -2 18 -2 25 0 6 3 1 5 -13 5 -14 0 -19 -2 -12 -5z"/>
<path d="M17988 36592 c-24 -5 -23 -12 7 -45 28 -29 50 -34 61 -14 4 6 4 9 -1
5 -4 -4 -16 -3 -27 3 -18 10 -18 12 -3 29 15 16 14 18 -2 22 -10 2 -26 2 -35
0z"/>
<path d="M18360 36590 c-12 -8 -10 -10 8 -10 13 0 20 4 17 10 -7 12 -6 12 -25
0z"/>
<path d="M17760 36579 c0 -5 6 -9 14 -9 8 0 22 -3 32 -7 11 -4 15 -2 12 7 -5
15 -58 23 -58 9z"/>
<path d="M17897 36583 c-15 -14 -6 -23 22 -23 37 0 49 16 18 24 -28 7 -32 7
-40 -1z"/>
<path d="M18445 36580 c3 -5 12 -7 20 -3 21 7 19 13 -6 13 -11 0 -18 -4 -14
-10z"/>
<path d="M17614 36571 c7 -11 66 -20 66 -10 0 7 -35 19 -58 19 -7 0 -11 -4 -8
-9z"/>
<path d="M18072 36561 c-11 -7 -11 -9 0 -14 9 -3 15 1 15 9 0 8 -1 14 -1 14
-1 0 -7 -4 -14 -9z"/>
<path d="M17840 36550 c0 -5 5 -10 10 -10 6 0 10 5 10 10 0 6 -4 10 -10 10 -5
0 -10 -4 -10 -10z"/>
<path d="M18105 36550 c3 -5 15 -10 25 -10 10 0 22 5 25 10 4 6 -7 10 -25 10
-18 0 -29 -4 -25 -10z"/>
<path d="M18240 36550 c0 -5 19 -10 43 -9 32 0 37 2 22 9 -28 12 -65 12 -65 0z"/>
<path d="M17932 36528 c5 -15 37 -18 41 -3 1 6 -9 12 -22 13 -16 3 -22 -1 -19
-10z"/>
<path d="M18205 36530 c-3 -5 -2 -10 4 -10 5 0 13 5 16 10 3 6 2 10 -4 10 -5
0 -13 -4 -16 -10z"/>
<path d="M17590 36520 c-13 -8 -12 -10 3 -10 9 0 17 5 17 10 0 12 -1 12 -20 0z"/>
<path d="M17770 36510 c-18 -12 -2 -12 25 0 13 6 15 9 5 9 -8 0 -22 -4 -30 -9z"/>
<path d="M17840 36501 c0 -10 40 -22 52 -15 18 11 6 24 -22 24 -16 0 -30 -4
-30 -9z"/>
<path d="M18080 36500 c0 -5 9 -10 19 -10 11 0 23 5 26 10 4 6 -5 10 -19 10
-14 0 -26 -4 -26 -10z"/>
<path d="M17530 36490 c0 -5 5 -10 10 -10 6 0 10 5 10 10 0 6 -4 10 -10 10 -5
0 -10 -4 -10 -10z"/>
<path d="M17920 36480 c0 -5 5 -10 11 -10 5 0 7 5 4 10 -3 6 -8 10 -11 10 -2
0 -4 -4 -4 -10z"/>
<path d="M14162 36454 c4 -21 22 -23 26 -1 2 10 -3 17 -13 17 -10 0 -15 -6
-13 -16z"/>
<path d="M17500 36460 c-8 -5 -12 -12 -8 -15 10 -10 88 -13 94 -4 3 5 -8 9
-23 9 -16 0 -33 4 -39 10 -5 5 -15 6 -24 0z"/>
<path d="M17775 36452 c-10 -11 8 -22 35 -22 42 0 46 17 5 22 -20 2 -38 2 -40
0z"/>
<path d="M17270 36434 c0 -8 5 -12 10 -9 6 3 10 10 10 16 0 5 -4 9 -10 9 -5 0
-10 -7 -10 -16z"/>
<path d="M11930 36240 c0 -5 5 -10 11 -10 5 0 7 5 4 10 -3 6 -8 10 -11 10 -2
0 -4 -4 -4 -10z"/>
<path d="M11930 36170 c0 -5 5 -10 10 -10 6 0 10 5 10 10 0 6 -4 10 -10 10 -5
0 -10 -4 -10 -10z"/>
<path d="M14146 36132 c-3 -6 -1 -14 5 -17 15 -10 25 3 12 16 -7 7 -13 7 -17
1z"/>
<path d="M30720 36106 c0 -2 7 -7 16 -10 8 -3 12 -2 9 4 -6 10 -25 14 -25 6z"/>
<path d="M12002 36010 c0 -14 2 -19 5 -12 2 6 2 18 0 25 -3 6 -5 1 -5 -13z"/>
<path d="M12162 35918 c-10 -51 -9 -68 4 -55 12 12 25 90 16 99 -5 5 -13 -13
-20 -44z"/>
<path d="M12276 35831 c-3 -5 -10 -38 -15 -75 -5 -36 -12 -70 -16 -76 -3 -5
-2 -10 3 -10 15 0 30 50 35 113 4 57 3 64 -7 48z"/>
<path d="M30365 35681 c-3 -5 -1 -12 5 -16 5 -3 10 1 10 9 0 18 -6 21 -15 7z"/>
<path d="M12120 35642 c0 -18 4 -32 9 -32 5 0 8 11 6 25 -4 38 -15 43 -15 7z"/>
<path d="M30340 35653 c0 -9 85 -84 110 -97 8 -5 -10 17 -42 48 -55 54 -68 64
-68 49z"/>
<path d="M23634 35579 c-16 -17 -16 -22 -4 -29 21 -14 23 -13 42 20 16 29 16
30 -1 30 -10 0 -26 -9 -37 -21z"/>
<path d="M30490 35510 c0 -5 5 -10 11 -10 5 0 7 5 4 10 -3 6 -8 10 -11 10 -2
0 -4 -4 -4 -10z"/>
<path d="M30624 35371 c15 -17 21 -18 37 -8 19 12 19 12 -3 19 -45 12 -52 10
-34 -11z"/>
<path d="M23536 35241 c-4 -7 -5 -15 -2 -18 9 -9 19 4 14 18 -4 11 -6 11 -12
0z"/>
<path d="M29995 35197 c-17 -13 -17 -15 4 -35 13 -11 36 -32 51 -47 27 -25 29
-26 27 -7 0 11 -4 19 -8 17 -3 -3 -19 9 -34 25 -24 25 -26 30 -12 36 10 3 17
10 17 15 0 13 -24 11 -45 -4z"/>
<path d="M25550 35130 c-6 -21 -15 -42 -20 -45 -17 -11 -11 -32 11 -38 17 -5
20 -11 17 -31 -3 -14 -2 -26 3 -26 4 0 9 -8 11 -17 3 -15 10 -11 38 18 19 20
41 44 49 54 9 12 21 15 40 10 26 -6 25 -6 -9 30 -36 38 -102 85 -119 85 -6 0
-15 -18 -21 -40z"/>
<path d="M12041 34994 c-16 -7 -55 -15 -85 -19 -39 -5 -56 -12 -56 -22 0 -8
-10 -24 -23 -36 -13 -13 -24 -37 -26 -57 -1 -19 -7 -40 -12 -46 -5 -6 -11 -26
-13 -45 -3 -19 -10 -50 -16 -69 -13 -43 -13 -50 0 -50 6 0 10 7 10 15 0 8 4
23 9 33 5 9 14 29 22 45 16 35 22 34 36 -4 10 -26 9 -34 -4 -47 -10 -11 -12
-17 -4 -20 6 -2 8 -9 4 -14 -6 -11 -8 -25 -17 -109 -2 -20 -9 -52 -15 -72 -7
-20 -10 -41 -7 -46 3 -4 -5 -21 -19 -37 -13 -15 -22 -30 -20 -33 3 -2 -2 -15
-10 -28 -9 -12 -17 -37 -19 -54 -2 -17 -9 -35 -16 -39 -6 -4 -11 -9 -11 -11 3
-9 -22 -69 -28 -69 -10 0 -66 -117 -82 -170 -7 -25 -21 -54 -32 -64 -19 -19
-19 -19 -13 1 8 24 -2 55 -15 47 -5 -3 -9 -23 -9 -46 l0 -40 78 5 c79 6 196
27 206 38 4 3 13 47 21 96 20 123 40 198 88 333 44 125 67 165 97 175 11 4 20
15 20 27 0 11 8 32 18 46 10 15 22 35 25 45 4 9 15 17 26 17 11 0 25 -8 30
-17 16 -27 14 41 -3 107 -7 30 -21 98 -30 151 -17 95 -17 96 -46 96 -16 0 -42
-6 -59 -13z m-54 -40 c-3 -3 -12 -4 -19 -1 -8 3 -5 6 6 6 11 1 17 -2 13 -5z
m-77 -565 c0 -6 -4 -7 -10 -4 -5 3 -10 11 -10 16 0 6 5 7 10 4 6 -3 10 -11 10
-16z m-230 -473 c0 -9 -8 -12 -27 -8 l-28 6 25 7 c14 4 26 7 28 8 1 1 2 -5 2
-13z"/>
<path d="M12903 34963 c4 -6 26 -13 49 -17 54 -9 163 -60 171 -80 3 -8 22 -22
41 -31 20 -10 36 -23 36 -30 0 -7 6 -17 13 -23 18 -14 61 -26 54 -15 -4 6 -7
39 -9 76 -2 64 -2 65 -33 70 -16 3 -66 12 -111 21 -45 8 -108 18 -140 21 -32
4 -63 9 -68 12 -5 4 -6 1 -3 -4z m307 -77 c0 -21 -11 -46 -20 -46 -4 0 -7 13
-6 30 1 29 26 44 26 16z"/>
<path d="M14043 34953 c-40 -5 -41 -12 -7 -44 l26 -24 19 24 c32 39 21 51 -38
44z"/>
<path d="M11614 34940 c-22 -9 -50 -62 -41 -77 3 -5 33 -8 66 -7 45 1 61 -2
61 -12 0 -7 9 -18 20 -24 15 -8 24 -5 45 17 30 33 30 36 9 58 -13 12 -14 19
-5 28 6 6 11 15 11 19 0 11 -139 9 -166 -2z m146 -90 c0 -5 -4 -10 -10 -10 -5
0 -10 5 -10 10 0 6 5 10 10 10 6 0 10 -4 10 -10z"/>
<path d="M30260 34918 c0 -7 4 -19 9 -26 7 -12 12 -12 30 -1 11 8 21 17 21 22
0 4 -4 5 -10 2 -5 -3 -19 -1 -30 5 -15 8 -20 8 -20 -2z"/>
<path d="M23395 34860 c-7 -12 2 -30 16 -30 5 0 9 9 9 20 0 21 -15 27 -25 10z"/>
<path d="M14032 34822 c-7 -13 -12 -35 -10 -50 l3 -27 13 23 c7 13 12 35 10
50 l-3 27 -13 -23z"/>
<path d="M11726 34785 c-3 -8 -1 -15 4 -15 6 0 10 7 10 15 0 8 -2 15 -4 15 -2
0 -6 -7 -10 -15z"/>
<path d="M14895 34772 c-19 -10 -50 -16 -82 -14 -29 1 -62 -2 -74 -7 -20 -7
-17 -9 19 -15 23 -3 42 -10 42 -15 0 -17 48 -29 86 -21 21 5 42 7 46 4 4 -3 8
0 8 5 0 6 6 11 14 11 15 0 26 21 26 51 0 24 -41 24 -85 1z"/>
<path d="M29650 34725 c0 -8 5 -15 10 -15 6 0 10 7 10 15 0 8 -4 15 -10 15 -5
0 -10 -7 -10 -15z"/>
<path d="M15790 34695 c-13 -16 -7 -45 9 -45 14 0 29 32 24 48 -6 16 -18 15
-33 -3z"/>
<path d="M29630 34703 c0 -13 60 -73 73 -73 8 1 7 5 -3 13 -8 7 -23 24 -33 40
-16 25 -37 36 -37 20z"/>
<path d="M13963 34646 c4 -10 7 -22 7 -27 0 -17 25 -9 38 11 10 16 10 20 -2
20 -8 0 -22 3 -32 7 -14 5 -16 3 -11 -11z"/>
<path d="M13919 34504 c-28 -63 -16 -67 15 -5 15 28 22 51 16 51 -6 0 -20 -21
-31 -46z"/>
<path d="M23243 34535 c-3 -9 -3 -18 0 -21 9 -9 27 6 27 22 0 19 -19 18 -27
-1z"/>
<path d="M29870 34452 c0 -4 16 -24 36 -43 31 -30 37 -32 47 -18 7 9 26 20 42
26 l30 11 -30 6 c-16 4 -44 11 -61 16 -37 12 -64 13 -64 2z"/>
<path d="M11576 34441 c-4 -7 -5 -15 -2 -18 9 -9 19 4 14 18 -4 11 -6 11 -12
0z"/>
<path d="M15670 34260 c0 -11 4 -20 9 -20 11 0 22 26 14 34 -12 12 -23 5 -23
-14z"/>
<path d="M29282 34235 l-23 -22 32 -31 c18 -17 36 -29 41 -26 5 3 -3 17 -17
31 -28 28 -31 39 -13 45 6 2 9 9 7 15 -2 5 -14 0 -27 -12z"/>
<path d="M23112 34159 c-13 -20 -7 -44 7 -34 12 7 21 44 12 49 -4 3 -13 -4
-19 -15z"/>
<path d="M11621 34144 c0 -11 3 -14 6 -6 3 7 2 16 -1 19 -3 4 -6 -2 -5 -13z"/>
<path d="M11592 34020 c0 -14 2 -19 5 -12 2 6 2 18 0 25 -3 6 -5 1 -5 -13z"/>
<path d="M29490 33997 c0 -2 19 -23 42 -47 31 -30 47 -40 62 -36 12 3 54 6 94
6 75 0 96 13 40 24 -72 13 -204 44 -220 51 -10 4 -18 5 -18 2z"/>
<path d="M22960 33840 c0 -5 5 -10 10 -10 6 0 10 5 10 10 0 6 -4 10 -10 10 -5
0 -10 -4 -10 -10z"/>
<path d="M28914 33759 c-19 -21 -19 -21 26 -61 24 -22 54 -44 65 -50 20 -11
20 -11 0 12 -12 13 -19 32 -17 47 3 22 1 23 -16 14 -18 -9 -19 -8 -14 11 4 15
2 19 -7 13 -10 -5 -11 -2 -6 14 8 27 -6 27 -31 0z"/>
<path d="M14661 33670 c-10 -34 -10 -45 2 -63 8 -12 17 -52 20 -89 5 -59 4
-68 -12 -73 -13 -4 -17 -12 -14 -29 6 -30 -21 -56 -58 -56 -16 0 -29 -5 -29
-12 0 -6 3 -8 7 -5 10 11 33 -13 33 -34 0 -46 53 -5 95 73 39 74 43 96 19 105
-13 5 -12 8 5 25 12 10 21 25 21 32 0 25 -23 81 -41 101 -10 11 -22 31 -27 44
-8 22 -9 20 -21 -19z"/>
<path d="M13464 33619 c-3 -6 -2 -14 4 -18 5 -3 12 -17 13 -31 4 -25 4 -24 26
10 20 32 21 36 5 42 -26 10 -40 9 -48 -3z"/>
<path d="M17984 33546 c-8 -21 13 -46 38 -46 30 0 21 54 -10 58 -13 2 -25 -3
-28 -12z"/>
<path d="M29120 33521 c1 -8 21 -32 46 -53 19 -17 22 -17 57 1 l36 18 -70 20
c-38 12 -69 18 -69 14z"/>
<path d="M22784 33475 c-17 -13 -17 -14 -2 -15 9 0 20 5 23 11 11 17 0 20 -21
4z"/>
<path d="M28555 33289 c-4 -6 -5 -13 -2 -16 7 -7 27 6 27 18 0 12 -17 12 -25
-2z"/>
<path d="M28530 33262 c0 -5 12 -17 28 -27 15 -9 39 -31 54 -49 14 -17 29 -28
32 -25 3 3 -8 21 -24 40 -16 19 -29 40 -30 47 0 6 -6 12 -14 12 -8 0 -21 3
-30 6 -9 3 -16 2 -16 -4z"/>
<path d="M14378 33243 c-40 -6 -35 -23 6 -23 42 0 68 9 60 21 -5 9 -17 9 -66
2z"/>
<path d="M18002 33214 c2 -20 12 -29 43 -40 43 -14 59 -7 53 22 -2 13 -13 20
-33 22 -17 2 -34 8 -39 13 -18 16 -27 9 -24 -17z"/>
<path d="M12705 33190 c-24 -4 -26 -7 -12 -12 9 -4 17 -18 17 -31 0 -13 13
-36 30 -52 23 -22 30 -25 30 -12 0 9 -5 17 -11 17 -6 0 -8 7 -5 16 3 8 2 13
-3 10 -5 -3 -11 1 -15 9 -3 8 0 15 7 16 7 0 3 4 -8 9 -14 6 -2 9 43 9 38 1 62
5 62 12 0 7 -12 9 -35 5 -19 -4 -43 -3 -52 2 -10 5 -31 6 -48 2z"/>
<path d="M11860 33169 c-231 -32 -384 -59 -394 -70 -6 -5 0 -9 16 -9 20 0 25
-4 23 -17 -2 -10 -4 -22 -4 -28 -1 -5 -5 -3 -11 5 -16 26 -24 -17 -11 -61 8
-27 9 -45 1 -58 -13 -24 -13 -71 -1 -71 15 0 24 -41 12 -53 -7 -7 -7 -16 0
-29 5 -10 7 -23 4 -29 -4 -5 -8 -24 -10 -42 -1 -18 -12 -52 -24 -75 -11 -23
-21 -48 -21 -57 0 -9 -4 -14 -9 -11 -7 5 -21 -23 -52 -102 -5 -13 -14 -20 -19
-17 -6 3 -10 -5 -10 -19 0 -26 -29 -99 -42 -104 -5 -2 -8 -8 -8 -13 0 -6 19
-9 42 -7 41 3 43 5 64 57 12 30 28 59 35 65 24 18 76 90 83 114 4 12 11 22 15
22 4 0 16 19 27 43 10 23 26 53 36 66 10 13 18 30 18 38 0 8 10 29 23 46 12
18 30 49 39 69 9 21 21 38 27 38 5 0 18 17 28 38 12 22 28 38 42 40 20 3 21 1
15 -37 -8 -47 1 -51 35 -15 29 31 43 17 36 -36 -4 -26 -3 -30 4 -15 5 11 14
58 21 105 7 47 18 103 25 125 22 71 27 115 13 114 -7 -1 -38 -5 -68 -10z"/>
<path d="M13289 33169 c-12 -7 -11 -11 3 -25 17 -17 38 -12 38 11 0 17 -23 25
-41 14z"/>
<path d="M22640 33110 c0 -5 5 -10 10 -10 6 0 10 5 10 10 0 6 -4 10 -10 10 -5
0 -10 -4 -10 -10z"/>
<path d="M11400 33090 c0 -5 4 -10 9 -10 6 0 13 5 16 10 3 6 -1 10 -9 10 -9 0
-16 -4 -16 -10z"/>
<path d="M11173 33060 c-13 -5 -23 -18 -23 -28 0 -15 6 -18 30 -14 17 2 30 8
30 12 0 4 11 11 25 14 14 4 23 11 20 16 -8 12 -52 12 -82 0z"/>
<path d="M11395 33019 c-4 -19 -12 -39 -17 -46 -11 -14 -1 -53 14 -53 19 0 47
44 36 57 -6 7 -8 19 -5 27 3 8 0 22 -7 32 -12 16 -14 15 -21 -17z"/>
<path d="M28745 33040 c3 -5 10 -10 16 -10 5 0 9 5 9 10 0 6 -7 10 -16 10 -8
0 -12 -4 -9 -10z"/>
<path d="M11190 32939 c0 -11 5 -17 10 -14 6 3 10 13 10 21 0 8 -4 14 -10 14
-5 0 -10 -9 -10 -21z"/>
<path d="M18050 32880 c-12 -8 -12 -10 2 -15 23 -9 50 -3 56 13 4 14 -36 16
-58 2z"/>
<path d="M22476 32801 c-20 -22 -20 -31 -1 -31 17 0 39 36 26 44 -4 3 -16 -3
-25 -13z"/>
<path d="M28170 32755 c7 -8 18 -15 25 -15 7 0 20 -10 29 -22 13 -18 15 -19 7
-3 -11 24 -47 55 -62 55 -8 0 -7 -5 1 -15z"/>
<path d="M13268 32718 c9 -9 15 -9 24 0 9 9 7 12 -12 12 -19 0 -21 -3 -12 -12z"/>
<path d="M11342 32667 c3 -37 12 -41 21 -8 3 11 -1 26 -9 32 -12 10 -14 6 -12
-24z"/>
<path d="M11090 32575 c0 -14 5 -25 10 -25 6 0 10 11 10 25 0 14 -4 25 -10 25
-5 0 -10 -11 -10 -25z"/>
<path d="M18110 32525 c0 -7 -7 -18 -16 -23 -20 -11 -1 -27 21 -18 17 6 21 56
5 56 -5 0 -10 -7 -10 -15z"/>
<path d="M28392 32529 c2 -6 8 -10 13 -10 5 0 11 4 13 10 2 6 -4 11 -13 11 -9
0 -15 -5 -13 -11z"/>
<path d="M11270 32451 c0 -38 4 -51 13 -49 18 7 20 55 3 80 -15 22 -16 20 -16
-31z"/>
<path d="M22310 32470 c-9 -16 -8 -20 5 -20 8 0 15 9 15 20 0 11 -2 20 -5 20
-2 0 -9 -9 -15 -20z"/>
<path d="M11231 32304 c0 -11 3 -14 6 -6 3 7 2 16 -1 19 -3 4 -6 -2 -5 -13z"/>
<path d="M27800 32272 c0 -13 49 -56 56 -50 3 3 -6 18 -19 32 -25 27 -37 32
-37 18z"/>
<path d="M18142 32219 c-17 -6 -22 -15 -20 -31 5 -34 36 -35 48 -2 13 33 3 45
-28 33z"/>
<path d="M27880 32192 c0 -12 19 -26 26 -19 2 2 -2 10 -11 17 -9 8 -15 8 -15
2z"/>
<path d="M22136 32134 c-10 -25 -7 -34 9 -28 8 4 15 15 15 25 0 23 -16 25 -24
3z"/>
<path d="M28036 32015 c4 -8 10 -12 15 -9 11 6 2 24 -11 24 -5 0 -7 -7 -4 -15z"/>
<path d="M14220 31965 c0 -3 10 -19 22 -35 25 -34 61 -253 47 -282 -11 -21 5
-33 19 -15 22 27 33 69 21 83 -9 11 -7 15 6 20 14 6 16 15 10 63 -4 31 -13 68
-21 82 -21 42 -104 108 -104 84z"/>
<path d="M18182 31843 c2 -17 10 -29 21 -31 13 -3 16 2 13 20 -3 13 -5 26 -5
31 -1 4 -8 7 -17 7 -11 0 -14 -8 -12 -27z"/>
<path d="M21940 31805 c-7 -9 -10 -18 -7 -21 10 -11 37 5 37 21 0 19 -14 19
-30 0z"/>
<path d="M13175 31709 c-4 -6 -4 -13 -1 -16 3 -3 -6 -25 -20 -49 -14 -24 -22
-44 -16 -44 5 0 15 13 22 29 6 16 20 37 31 47 10 9 19 23 19 31 0 16 -26 18
-35 2z"/>
<path d="M11106 31662 c-2 -1 -23 -6 -46 -10 -43 -7 -44 -8 -46 -50 -1 -24 -7
-48 -12 -55 -10 -12 -25 -75 -44 -182 -5 -33 -16 -72 -24 -87 -17 -32 -18 -68
-2 -68 6 0 8 -3 5 -6 -3 -4 -2 -14 3 -24 5 -10 6 -20 3 -24 -11 -11 -12 -36
-2 -36 6 0 6 -7 1 -17 -5 -10 -8 -23 -5 -29 2 -6 -4 -17 -12 -24 -15 -12 -14
-15 6 -31 20 -15 23 -26 23 -88 1 -39 -2 -71 -6 -71 -5 0 -8 -19 -8 -43 0 -23
-6 -51 -14 -62 -7 -11 -16 -33 -19 -50 -16 -88 -30 -127 -38 -114 -12 19 -11
8 2 -30 6 -17 8 -39 4 -49 -5 -9 -10 -64 -12 -121 -2 -57 -9 -113 -15 -125 -6
-11 -13 -30 -14 -41 -5 -42 -24 -116 -34 -135 -6 -11 -8 -31 -4 -46 4 -17 2
-29 -7 -35 -9 -6 -10 -9 -2 -9 7 0 31 23 55 50 24 28 61 60 83 71 22 11 54 33
70 48 48 43 96 73 129 82 141 37 166 52 166 93 0 13 -7 29 -16 36 -8 8 -27 34
-41 59 -14 25 -36 62 -49 81 -12 19 -26 49 -30 65 -4 17 -15 40 -25 53 -10 13
-21 44 -25 70 -4 26 -13 60 -21 75 -12 25 -11 39 8 130 11 56 22 103 22 104 5
8 56 68 76 90 12 14 27 38 33 53 13 39 54 46 71 12 8 -18 25 -29 57 -37 59
-15 130 -52 130 -68 0 -6 12 -34 26 -62 23 -47 25 -48 19 -15 -8 43 -9 84 -5
178 3 61 0 77 -17 100 -11 15 -24 42 -27 59 -4 18 -16 43 -26 55 -19 25 -60
139 -60 168 0 9 -5 21 -11 27 -7 7 -15 29 -18 50 l-7 38 -123 0 c-67 0 -124
-1 -125 -3z"/>
<path d="M10858 31606 c-37 -11 -73 -27 -80 -33 -6 -7 -18 -13 -25 -13 -11 0
-43 -48 -43 -65 0 -3 9 -5 20 -5 11 0 20 -4 20 -9 0 -17 94 0 116 20 11 10 28
19 37 19 27 0 58 37 53 65 -3 17 -1 22 10 18 8 -3 14 1 14 11 0 22 -38 19
-122 -8z"/>
<path d="M12190 31583 c0 -5 8 -17 17 -28 13 -16 15 -17 10 -2 -4 9 -2 17 4
17 6 0 7 5 4 10 -7 12 -35 14 -35 3z"/>
<path d="M14205 31570 c-22 -5 -66 -12 -97 -18 -59 -9 -77 -17 -65 -29 4 -3
24 -1 46 5 21 7 60 12 87 12 33 0 57 7 74 20 27 21 20 23 -45 10z"/>
<path d="M27720 31507 c12 -13 22 -14 45 -8 l30 9 -27 1 c-14 1 -35 4 -45 7
-16 6 -16 5 -3 -9z"/>
<path d="M13920 31470 c-24 -15 -7 -19 20 -5 15 8 19 14 10 14 -8 1 -22 -3
-30 -9z"/>
<path d="M18283 31473 c-25 -10 -9 -73 19 -73 4 0 8 18 8 40 0 40 -3 43 -27
33z"/>
<path d="M13034 31453 c3 -8 6 -16 6 -19 0 -2 7 -1 15 2 21 9 19 21 -6 27 -15
4 -19 2 -15 -10z"/>
<path d="M13791 31456 c-20 -11 -21 -14 -6 -19 25 -10 54 -8 77 4 17 9 18 13
7 20 -20 12 -50 10 -78 -5z"/>
<path d="M21748 31450 c-7 -24 -3 -38 8 -28 3 4 4 17 2 30 l-3 23 -7 -25z"/>
<path d="M27070 31286 c0 -2 7 -7 16 -10 8 -3 12 -2 9 4 -6 10 -25 14 -25 6z"/>
<path d="M18411 31171 c-17 -11 -8 -39 14 -47 22 -9 27 -1 19 30 -7 28 -11 30
-33 17z"/>
<path d="M12842 31129 c2 -7 10 -15 17 -17 8 -3 12 1 9 9 -2 7 -10 15 -17 17
-8 3 -12 -1 -9 -9z"/>
<path d="M21536 31122 c-2 -4 0 -14 5 -22 8 -13 10 -13 19 0 5 8 10 18 10 23
0 10 -28 9 -34 -1z"/>
<path d="M10817 30966 c-4 -10 -7 -34 -6 -54 l1 -37 17 38 c10 20 21 34 24 30
4 -3 7 -1 7 5 0 7 -6 12 -14 12 -8 0 -16 5 -18 12 -3 7 -7 5 -11 -6z"/>
<path d="M18584 30865 c-9 -21 3 -45 21 -45 10 0 15 10 15 30 0 32 -26 43 -36
15z"/>
<path d="M10820 30679 c0 -24 23 -21 28 4 2 10 -3 17 -12 17 -10 0 -16 -9 -16
-21z"/>
<path d="M18803 30599 c-16 -16 -5 -39 18 -39 22 0 24 9 6 33 -9 14 -15 15
-24 6z"/>
<path d="M10413 30583 c-3 -10 -8 -21 -10 -25 -2 -4 3 -5 11 -2 9 3 16 15 16
25 0 24 -9 25 -17 2z"/>
<path d="M21000 30581 c0 -18 18 -21 30 -6 10 13 9 15 -9 15 -11 0 -21 -4 -21
-9z"/>
<path d="M27030 30504 c0 -15 26 -19 34 -5 3 5 -3 11 -14 14 -13 3 -20 0 -20
-9z"/>
<path d="M10388 30480 c-7 -24 -3 -38 8 -28 3 4 4 17 2 30 l-3 23 -7 -25z"/>
<path d="M10451 30463 c7 -10 15 -20 16 -22 2 -2 3 5 3 17 0 14 -6 22 -16 22
-14 0 -15 -3 -3 -17z"/>
<path d="M10732 30467 c-18 -21 -26 -67 -12 -67 16 0 39 30 40 52 0 22 -15 31
-28 15z"/>
<path d="M14681 30464 c0 -11 3 -14 6 -6 3 7 2 16 -1 19 -3 4 -6 -2 -5 -13z"/>
<path d="M19095 30370 c-8 -13 20 -24 42 -16 15 6 15 8 3 16 -20 13 -37 12
-45 0z"/>
<path d="M20765 30369 c-4 -6 -4 -13 -1 -16 8 -8 36 5 36 17 0 13 -27 13 -35
-1z"/>
<path d="M10401 30354 c0 -11 3 -14 6 -6 3 7 2 16 -1 19 -3 4 -6 -2 -5 -13z"/>
<path d="M21406 30344 c-9 -23 -8 -24 14 -24 23 0 26 13 6 29 -11 9 -15 8 -20
-5z"/>
<path d="M26370 30296 c0 -2 7 -7 16 -10 8 -3 12 -2 9 4 -6 10 -25 14 -25 6z"/>
<path d="M10647 30263 c-10 -17 -18 -85 -12 -103 3 -11 12 -17 20 -14 11 4 12
12 4 32 -6 15 -8 41 -4 59 5 31 2 43 -8 26z"/>
<path d="M10337 30244 c-4 -4 -7 -14 -7 -23 0 -11 3 -12 11 -4 6 6 10 16 7 23
-2 6 -7 8 -11 4z"/>
<path d="M19435 30239 c-4 -6 -1 -15 6 -20 21 -13 31 -11 27 8 -4 20 -24 28
-33 12z"/>
<path d="M20420 30192 c0 -9 6 -12 16 -8 9 3 22 6 30 6 8 0 14 4 14 8 0 5 -13
9 -30 9 -19 0 -30 -5 -30 -15z"/>
<path d="M10370 30184 c0 -14 3 -14 15 -4 8 7 15 14 15 16 0 2 -7 4 -15 4 -8
0 -15 -7 -15 -16z"/>
<path d="M10315 30170 c-3 -5 -1 -10 4 -10 6 0 11 5 11 10 0 6 -2 10 -4 10 -3
0 -8 -4 -11 -10z"/>
<path d="M15673 30161 c-7 -10 -10 -21 -7 -24 11 -10 59 10 62 26 5 24 -40 22
-55 -2z"/>
<path d="M18686 30173 c-12 -12 -6 -33 9 -33 8 0 15 6 15 14 0 17 -14 28 -24
19z"/>
<path d="M10354 30120 c2 -28 -1 -43 -11 -49 -14 -7 -32 -91 -19 -91 13 0 46
41 41 51 -4 5 -3 15 2 22 12 15 5 107 -8 107 -5 0 -7 -18 -5 -40z"/>
<path d="M19820 30125 c0 -8 7 -15 15 -15 8 0 15 7 15 15 0 8 -7 15 -15 15 -8
0 -15 -7 -15 -15z"/>
<path d="M20082 30123 c2 -10 13 -19 26 -21 26 -4 28 6 5 24 -25 18 -35 17
-31 -3z"/>
<path d="M10298 30100 c-3 -16 -1 -30 4 -30 4 0 8 14 8 30 0 17 -2 30 -4 30
-2 0 -6 -13 -8 -30z"/>
<path d="M16043 30095 c-3 -9 -3 -18 -1 -21 9 -9 38 8 38 22 0 19 -29 18 -37
-1z"/>
<path d="M18337 30096 c-4 -10 -5 -21 -2 -24 9 -9 17 6 13 25 -3 17 -4 17 -11
-1z"/>
<path d="M14570 30075 c0 -27 9 -32 28 -13 18 18 14 38 -8 38 -15 0 -20 -7
-20 -25z"/>
<path d="M12375 30064 c-15 -11 -17 -18 -9 -31 17 -27 33 -26 40 2 8 34 -6 48
-31 29z"/>
<path d="M16385 30060 c-4 -6 -3 -16 3 -22 6 -6 12 -6 17 2 4 6 3 16 -3 22 -6
6 -12 6 -17 -2z"/>
<path d="M17996 30045 c-3 -9 0 -15 9 -15 16 0 20 16 6 24 -5 3 -11 -1 -15 -9z"/>
<path d="M13521 30013 c-1 -28 -107 -143 -132 -143 -10 0 -19 -4 -19 -8 0 -14
23 -32 40 -32 21 0 90 63 90 82 0 8 7 29 16 46 8 18 13 42 11 54 -4 23 -4 23
-6 1z"/>
<path d="M16735 30011 c-7 -12 12 -24 25 -16 11 7 4 25 -10 25 -5 0 -11 -4
-15 -9z"/>
<path d="M19270 30001 c0 -14 18 -23 31 -15 8 4 7 9 -2 15 -18 11 -29 11 -29
0z"/>
<path d="M26676 29995 c4 -8 10 -12 15 -9 11 6 2 24 -11 24 -5 0 -7 -7 -4 -15z"/>
<path d="M17666 29985 c-3 -9 0 -15 9 -15 8 0 15 7 15 15 0 8 -4 15 -9 15 -5
0 -11 -7 -15 -15z"/>
<path d="M20598 29993 c7 -3 16 -2 19 1 4 3 -2 6 -13 5 -11 0 -14 -3 -6 -6z"/>
<path d="M15514 29979 c-19 -23 -26 -57 -14 -64 19 -12 32 10 28 45 -2 27 -5
31 -14 19z"/>
<path d="M17047 29984 c-14 -14 -7 -35 11 -32 9 2 17 10 17 17 0 16 -18 25
-28 15z"/>
<path d="M17343 29965 c-3 -9 -3 -18 0 -21 9 -9 27 6 27 22 0 19 -19 18 -27
-1z"/>
<path d="M15855 29920 c-4 -6 -3 -16 3 -22 6 -6 12 -6 17 2 4 6 3 16 -3 22 -6
6 -12 6 -17 -2z"/>
<path d="M19530 29918 c25 -5 53 -14 62 -19 22 -11 28 -11 28 1 0 12 -66 30
-105 29 -25 -1 -22 -3 15 -11z"/>
<path d="M20318 29907 c-21 -6 -38 -14 -38 -19 0 -11 64 0 105 18 l30 13 -30
-1 c-16 0 -47 -5 -67 -11z"/>
<path d="M20195 29884 c-43 -11 -143 -16 -285 -16 -19 1 -75 3 -125 7 -64 4
-86 3 -75 -4 8 -6 32 -11 52 -11 20 0 38 -6 41 -12 5 -17 308 -17 329 -1 7 6
35 13 61 16 47 5 77 20 60 30 -4 2 -30 -1 -58 -9z m-352 -31 c-7 -2 -19 -2
-25 0 -7 3 -2 5 12 5 14 0 19 -2 13 -5z"/>
<path d="M19658 29883 c7 -3 16 -2 19 1 4 3 -2 6 -13 5 -11 0 -14 -3 -6 -6z"/>
<path d="M13228 29758 c8 -8 20 -8 44 -1 l33 11 -44 1 c-34 1 -42 -2 -33 -11z"/>
<path d="M17521 29744 c0 -11 3 -14 6 -6 3 7 2 16 -1 19 -3 4 -6 -2 -5 -13z"/>
<path d="M17200 29720 c0 -11 2 -20 4 -20 2 0 6 9 9 20 3 11 1 20 -4 20 -5 0
-9 -9 -9 -20z"/>
<path d="M11390 29719 c-13 -6 -34 -8 -45 -5 -11 3 -26 2 -33 -3 -14 -8 23
-26 173 -86 184 -74 371 -132 383 -121 3 3 -2 14 -11 23 -21 24 -50 111 -43
130 8 19 -16 42 -56 54 -51 15 -198 20 -241 8 -28 -7 -43 -7 -50 0 -13 13 -43
13 -77 0z"/>
<path d="M14400 29700 c0 -32 1 -33 17 -17 16 16 16 18 0 34 -16 16 -17 15
-17 -17z"/>
<path d="M12390 29685 c-14 -16 -6 -35 16 -35 8 0 14 10 14 25 0 28 -12 32
-30 10z"/>
<path d="M14250 29355 c-16 -19 -3 -40 16 -24 15 13 19 39 5 39 -5 0 -14 -7
-21 -15z"/>
<path d="M25665 29320 c3 -5 8 -10 11 -10 2 0 4 5 4 10 0 6 -5 10 -11 10 -5 0
-7 -4 -4 -10z"/>
<path d="M12390 29297 c0 -8 7 -21 16 -28 14 -11 15 -10 12 11 -3 26 -28 41
-28 17z"/>
<path d="M12186 29240 c-3 -8 -7 -76 -9 -150 -3 -74 -8 -142 -11 -151 -7 -16
19 -47 30 -36 12 12 17 313 6 333 -9 16 -12 16 -16 4z"/>
<path d="M10139 29201 c7 -5 10 -14 7 -20 -4 -6 0 -19 10 -28 10 -10 12 -19 6
-21 -6 -2 -8 -10 -5 -18 3 -8 0 -21 -6 -28 -9 -11 -9 -26 3 -63 8 -26 15 -39
15 -28 1 28 32 107 50 128 13 16 13 19 1 27 -8 6 -21 10 -28 10 -7 0 -18 11
-24 25 -6 14 -18 25 -27 25 -13 0 -13 -2 -2 -9z"/>
<path d="M11740 29179 c0 -11 5 -17 10 -14 6 3 10 -2 10 -11 0 -10 3 -15 6
-11 9 9 -5 57 -16 57 -6 0 -10 -9 -10 -21z"/>
<path d="M10336 29103 c-10 -10 45 -63 65 -63 9 0 20 -7 23 -16 9 -23 26 -7
26 25 0 19 -7 31 -22 38 -30 15 -84 24 -92 16z"/>
<path d="M14097 29013 c-4 -3 -7 -15 -7 -25 0 -26 24 -17 28 10 3 21 -8 29
-21 15z"/>
<path d="M12382 28969 c2 -6 8 -10 13 -10 5 0 11 4 13 10 2 6 -4 11 -13 11 -9
0 -15 -5 -13 -11z"/>
<path d="M10276 28744 c-18 -47 -3 -76 45 -87 23 -6 25 -11 25 -54 -1 -36 3
-48 16 -51 17 -3 21 10 32 98 6 45 6 45 -44 78 -56 36 -65 38 -74 16z"/>
<path d="M13930 28647 c0 -19 10 -27 26 -20 21 8 17 33 -6 33 -11 0 -20 -6
-20 -13z"/>
<path d="M11586 28500 c10 -55 40 -105 69 -118 33 -15 38 -13 22 14 -7 11 -21
35 -32 53 -11 19 -30 45 -43 60 l-23 26 7 -35z"/>
<path d="M13017 28484 c-9 -10 4 -34 19 -34 19 0 44 -40 44 -73 0 -21 4 -28
14 -24 9 4 17 -3 21 -16 6 -21 7 -20 16 8 11 37 5 57 -16 49 -9 -4 -17 1 -22
12 -8 22 -55 84 -64 84 -3 0 -8 -3 -12 -6z"/>
<path d="M13770 28305 c-10 -11 -10 -19 -2 -27 15 -15 44 -2 40 19 -4 23 -22
27 -38 8z"/>
<path d="M13103 28283 c-7 -15 -13 -36 -13 -47 0 -18 3 -17 20 9 20 30 27 65
13 65 -5 0 -14 -12 -20 -27z"/>
<path d="M11895 28181 c4 -22 -2 -37 -21 -60 -21 -26 -24 -34 -14 -46 21 -25
43 -17 99 34 52 47 59 71 22 71 -9 0 -26 7 -37 15 -10 8 -27 15 -37 15 -14 0
-16 -6 -12 -29z"/>
<path d="M13053 28157 c-10 -13 -57 -43 -103 -67 -47 -23 -91 -47 -98 -53 -15
-12 -132 -15 -268 -5 -76 5 -98 10 -130 32 -21 14 -49 26 -61 26 -12 0 -51 11
-85 24 -74 27 -193 42 -163 19 11 -7 27 -13 37 -13 11 0 18 -7 18 -19 0 -11 5
-23 10 -26 6 -3 10 -22 10 -41 0 -19 3 -34 7 -34 4 0 24 18 44 40 36 39 37 40
70 26 38 -16 153 -45 276 -72 69 -14 91 -15 142 -5 93 18 271 108 305 153 25
35 15 48 -11 15z"/>
<path d="M13620 27965 c0 -18 4 -23 15 -19 8 4 15 15 15 25 0 10 -7 19 -15 19
-9 0 -15 -9 -15 -25z"/>
<path d="M12157 27943 c-4 -3 -7 -11 -7 -17 0 -6 5 -5 12 2 6 6 9 14 7 17 -3
3 -9 2 -12 -2z"/>
<path d="M12066 27863 c-11 -11 -6 -23 9 -23 8 0 15 4 15 9 0 13 -16 22 -24
14z"/>
<path d="M11831 27737 c-14 -37 -14 -36 9 -30 22 6 23 8 10 38 -7 19 -9 18
-19 -8z"/>
<path d="M11690 27665 c-8 -9 -8 -15 -2 -15 12 0 26 19 19 26 -2 2 -10 -2 -17
-11z"/>
<path d="M13442 27648 c-14 -14 -16 -38 -4 -38 12 0 32 23 32 37 0 16 -12 17
-28 1z"/>
<path d="M14626 27575 c-6 -17 16 -31 33 -21 13 9 2 36 -14 36 -7 0 -16 -7
-19 -15z"/>
<path d="M11376 27434 c-9 -23 -8 -24 18 -24 29 0 44 19 25 31 -21 13 -36 11
-43 -7z"/>
<path d="M14333 27437 c-3 -5 0 -14 6 -20 13 -13 42 0 49 21 4 14 -46 13 -55
-1z"/>
<path d="M11645 27328 c-8 -21 1 -38 21 -38 18 0 18 11 0 36 -13 17 -15 18
-21 2z"/>
<path d="M13240 27315 c-7 -8 -10 -19 -6 -22 9 -9 38 8 38 22 -1 16 -18 16
-32 0z"/>
<path d="M11880 27242 c0 -9 9 -23 19 -29 16 -10 20 -9 25 4 4 9 5 16 4 17 -2
1 -13 7 -25 14 -20 11 -23 10 -23 -6z"/>
<path d="M14226 27243 c-13 -14 -5 -42 14 -48 11 -3 20 -13 20 -21 0 -8 9 -14
20 -14 11 0 20 -7 20 -15 0 -12 10 -13 48 -9 26 3 62 6 80 7 l33 1 -37 19
c-30 15 -42 17 -56 8 -15 -9 -19 -7 -24 14 -3 14 -11 25 -16 25 -6 0 -16 6
-22 14 -12 15 -70 29 -80 19z"/>
<path d="M12142 27133 c3 -16 51 -36 62 -25 3 3 6 14 6 24 0 14 -8 18 -36 18
-28 0 -35 -4 -32 -17z"/>
<path d="M12426 27082 c-8 -13 10 -52 24 -52 14 0 12 23 -3 45 -10 12 -16 14
-21 7z"/>
<path d="M13038 27007 c-6 -30 0 -47 18 -47 18 0 18 44 0 59 -11 9 -14 7 -18
-12z"/>
<path d="M12707 26994 c-2 -2 -2 -17 1 -34 7 -46 61 -51 62 -5 0 11 -56 46
-63 39z"/>
<path d="M13290 26890 c-9 -16 -8 -18 5 -14 8 4 15 12 15 20 0 20 -7 17 -20
-6z"/>
<path d="M13200 26739 c0 -11 5 -17 10 -14 6 3 10 13 10 21 0 8 -4 14 -10 14
-5 0 -10 -9 -10 -21z"/>
<path d="M12806 26711 c-4 -5 -3 -16 0 -25 5 -12 10 -14 20 -6 7 7 10 18 7 26
-6 16 -19 18 -27 5z"/>
<path d="M13135 26650 c-18 -36 -19 -41 -1 -34 11 4 36 45 36 59 0 16 -22 0
-35 -25z"/>
<path d="M13080 26601 c0 -20 -51 -67 -89 -82 -17 -7 -21 -13 -14 -20 7 -7 4
-22 -8 -46 -10 -20 -17 -39 -14 -41 9 -9 35 21 35 40 0 10 8 21 18 25 22 8 72
63 72 79 0 6 6 17 14 24 8 6 12 18 9 26 -8 20 -23 17 -23 -5z"/>
<path d="M12927 26513 c-4 -3 -7 -11 -7 -17 0 -6 5 -5 12 2 6 6 9 14 7 17 -3
3 -9 2 -12 -2z"/>
<path d="M12530 26436 c0 -18 16 -29 30 -21 13 8 1 35 -16 35 -8 0 -14 -6 -14
-14z"/>
<path d="M13840 26407 c0 -19 16 -31 24 -18 3 5 -1 14 -9 21 -12 10 -15 10
-15 -3z"/>
<path d="M12898 26373 c-20 -5 -24 -18 -9 -28 6 -3 15 4 21 15 6 11 9 19 8 19
-2 -1 -11 -3 -20 -6z"/>
<path d="M12857 26343 c-5 -12 -23 -33 -40 -45 -41 -29 -57 -44 -57 -56 0 -14
-43 -49 -70 -57 -14 -4 -30 -15 -37 -24 -11 -14 -12 -14 -13 -1 0 10 -7 7 -23
-11 -12 -14 -56 -39 -97 -54 -41 -16 -91 -42 -110 -57 -19 -16 -47 -28 -62
-28 -16 0 -28 -5 -28 -11 0 -6 -9 -8 -20 -4 -29 9 -61 -4 -58 -23 4 -20 -79
-52 -108 -42 -10 4 -32 3 -49 -2 -16 -5 -59 -11 -95 -14 -36 -2 -83 -9 -105
-14 -35 -8 -141 -22 -170 -22 -36 0 -267 25 -300 32 -22 5 -47 9 -55 9 -37 0
22 -19 106 -35 213 -39 242 -42 369 -38 145 4 167 7 310 35 158 31 404 155
575 289 25 20 57 44 73 53 15 10 27 24 27 31 0 8 12 23 26 33 20 15 25 26 22
49 -3 27 -4 28 -11 7z"/>
<path d="M11387 26214 c-8 -8 1 -24 14 -24 5 0 9 7 9 15 0 15 -12 20 -23 9z"/>
<path d="M12226 26211 c-4 -7 -5 -15 -2 -18 9 -9 19 4 14 18 -4 11 -6 11 -12
0z"/>
<path d="M12010 26190 c0 -5 5 -10 10 -10 6 0 10 5 10 10 0 6 -4 10 -10 10 -5
0 -10 -4 -10 -10z"/>
<path d="M11712 26158 c-16 -16 -15 -28 3 -28 8 0 15 9 15 20 0 23 -2 24 -18
8z"/>
<path d="M11100 25980 c-10 -6 -6 -10 16 -15 16 -4 35 -8 42 -11 22 -6 13 5
-16 20 -17 9 -34 11 -42 6z"/>
<path d="M23360 25806 c0 -2 8 -10 18 -17 15 -13 16 -12 3 4 -13 16 -21 21
-21 13z"/>
<path d="M22995 25320 c21 -24 26 -25 19 -6 -3 8 -13 17 -22 21 -13 5 -13 2 3
-15z"/>
<path d="M22590 24866 c0 -3 8 -15 17 -26 18 -20 33 -26 33 -12 -1 8 -50 46
-50 38z"/>
<path d="M22674 24783 c11 -13 26 -23 35 -22 14 0 14 1 1 6 -8 3 -24 13 -35
22 -20 16 -20 16 -1 -6z"/>
<path d="M9372 24618 c-6 -23 -9 -44 -7 -46 6 -6 45 62 42 72 -8 25 -25 12
-35 -26z"/>
<path d="M14945 24640 c-3 -5 -1 -10 4 -10 6 0 11 5 11 10 0 6 -2 10 -4 10 -3
0 -8 -4 -11 -10z"/>
<path d="M22855 24590 c3 -5 11 -10 16 -10 6 0 7 5 4 10 -3 6 -11 10 -16 10
-6 0 -7 -4 -4 -10z"/>
<path d="M15230 24579 c0 -5 5 -7 10 -4 6 3 10 8 10 11 0 2 -4 4 -10 4 -5 0
-10 -5 -10 -11z"/>
<path d="M13830 24499 c0 -5 5 -7 10 -4 6 3 10 8 10 11 0 2 -4 4 -10 4 -5 0
-10 -5 -10 -11z"/>
<path d="M9770 24390 c-1 -3 -4 -23 -6 -45 -3 -21 -10 -45 -16 -52 -8 -10 -8
-17 -1 -24 11 -11 53 46 53 73 0 14 -28 58 -30 48z"/>
<path d="M22206 24371 c-8 -12 38 -41 66 -42 19 -1 20 -2 4 -6 -14 -4 -16 -7
-6 -13 7 -4 18 -3 24 2 8 8 4 19 -15 39 -26 28 -62 38 -73 20z"/>
<path d="M14630 24354 c0 -9 5 -14 12 -12 18 6 21 28 4 28 -9 0 -16 -7 -16
-16z"/>
<path d="M11244 24345 c-19 -13 -20 -19 -12 -72 5 -32 13 -62 18 -66 14 -15
47 3 58 31 22 57 22 69 1 95 -23 31 -36 33 -65 12z"/>
<path d="M14945 24290 c-3 -5 -1 -10 4 -10 6 0 11 5 11 10 0 6 -2 10 -4 10 -3
0 -8 -4 -11 -10z"/>
<path d="M14372 24101 c2 -7 7 -12 11 -12 12 1 9 15 -3 20 -7 2 -11 -2 -8 -8z"/>
<path d="M10185 24030 c-4 -6 -4 -14 -1 -17 3 -3 -2 -19 -12 -36 -13 -22 -14
-31 -4 -34 6 -3 12 -14 12 -25 0 -32 31 -17 53 26 15 29 18 44 11 65 -10 27
-47 41 -59 21z"/>
<path d="M21852 23933 c-7 -2 -17 -13 -23 -24 -8 -16 -5 -25 20 -49 16 -17 34
-30 40 -30 6 0 17 -11 23 -25 13 -29 44 -31 61 -4 8 12 -1 27 -41 70 -29 30
-52 57 -52 62 0 8 -8 8 -28 0z"/>
<path d="M8876 23743 c-6 -14 -5 -15 5 -6 7 7 10 15 7 18 -3 3 -9 -2 -12 -12z"/>
<path d="M14385 23741 c-3 -5 -1 -12 5 -16 5 -3 10 1 10 9 0 18 -6 21 -15 7z"/>
<path d="M10708 23605 c-8 -8 2 -129 11 -138 14 -14 47 2 59 29 15 33 15 87 0
102 -12 12 -60 17 -70 7z"/>
<path d="M9220 23510 c-8 -14 -8 -26 0 -40 6 -11 8 -25 5 -30 -3 -6 -2 -10 4
-10 14 0 41 53 41 80 0 27 -36 27 -50 0z"/>
<path d="M21453 23444 c-14 -14 -24 -26 -22 -27 2 -1 17 -13 33 -27 28 -25 28
-25 22 -2 -8 26 -3 28 18 7 8 -8 21 -12 30 -9 12 5 13 10 4 30 -6 13 -17 24
-25 24 -7 0 -13 7 -13 15 0 22 -18 18 -47 -11z"/>
<path d="M39880 23441 c-14 -5 -43 -17 -65 -28 -75 -38 -149 -53 -247 -51 -82
2 -101 -1 -154 -25 -34 -14 -94 -34 -133 -43 -68 -15 -100 -15 -177 1 -23 5
-44 0 -80 -18 -120 -59 -270 -86 -324 -57 -26 14 -60 12 -94 -5 -15 -8 -36
-15 -45 -15 -9 0 -21 -4 -26 -9 -6 -5 -50 -21 -99 -35 -87 -25 -91 -25 -155
-10 -66 15 -110 11 -163 -17 -28 -14 -165 -49 -194 -49 -14 0 -53 7 -87 16
-63 16 -74 14 -174 -27 -101 -41 -133 -48 -198 -45 -34 2 -72 9 -85 16 -30 16
-82 8 -155 -24 -22 -10 -55 -20 -72 -23 -18 -3 -33 -10 -33 -14 0 -14 -131 -9
-175 6 -55 20 -94 19 -140 -5 -22 -12 -77 -32 -123 -47 l-83 -26 -67 18 c-111
30 -143 30 -198 2 -27 -13 -82 -34 -122 -47 -81 -24 -113 -21 -218 22 l-52 21
-68 -31 c-145 -66 -229 -73 -324 -29 -51 24 -114 25 -140 2 -45 -41 -267 -84
-285 -56 -3 5 -19 12 -35 16 -17 4 -30 11 -30 16 0 17 -60 9 -110 -15 -143
-69 -261 -82 -336 -35 -29 17 -44 20 -82 15 -25 -3 -48 -10 -51 -15 -14 -19
-150 -65 -209 -69 -64 -4 -86 2 -144 40 -39 27 -69 22 -160 -23 -69 -34 -96
-42 -159 -46 -79 -6 -122 6 -178 49 -33 25 -53 23 -119 -14 -69 -40 -112 -56
-174 -64 -74 -10 -135 3 -170 37 -36 34 -89 39 -128 12 -79 -56 -130 -73 -212
-73 -78 0 -85 2 -150 41 l-67 41 -78 -39 c-43 -22 -112 -47 -153 -57 -88 -21
-160 -71 -160 -111 0 -13 5 -27 12 -31 13 -9 158 -7 258 2 36 3 72 6 80 6 8 0
75 4 148 9 73 5 205 11 294 14 88 3 163 7 167 9 3 2 87 7 186 11 99 4 214 8
255 11 227 12 307 15 425 18 72 2 146 6 165 9 60 11 322 23 695 32 55 1 120 5
145 8 56 7 257 21 287 20 13 -1 21 2 19 6 -2 3 30 6 72 6 43 1 118 4 167 8 50
4 158 10 240 13 83 3 166 10 185 15 19 5 118 12 220 15 107 4 195 11 210 18
14 7 64 11 113 11 48 -1 90 1 92 4 2 4 50 8 107 9 56 2 121 7 143 12 45 10
299 31 378 32 29 0 57 3 62 8 6 4 46 11 90 15 44 4 96 9 115 11 19 2 67 6 105
8 39 3 106 10 150 16 44 6 123 15 175 21 52 5 109 11 125 14 116 16 304 37
375 41 47 2 99 8 115 13 17 5 37 9 45 9 27 1 114 10 155 16 175 28 276 40 520
62 39 4 75 10 80 14 6 4 35 8 65 9 30 2 60 6 65 10 9 8 100 22 135 23 8 0 26
4 40 8 32 11 113 22 168 21 24 0 42 5 42 11 0 6 3 9 6 5 3 -3 17 -2 31 4 18 6
22 6 17 -3 -5 -8 -2 -9 10 -5 10 4 20 7 22 7 2 0 4 74 4 165 l0 165 -47 -1
c-27 0 -59 -4 -73 -8z"/>
<path d="M21548 23353 c7 -3 16 -2 19 1 4 3 -2 6 -13 5 -11 0 -14 -3 -6 -6z"/>
<path d="M17651 23274 c-13 -29 -6 -47 9 -24 9 14 14 50 7 50 -2 0 -9 -12 -16
-26z"/>
<path d="M9667 23218 c-14 -11 -15 -19 -8 -45 6 -21 6 -35 0 -39 -10 -6 7 -34
20 -34 9 0 51 74 51 88 0 12 -28 42 -39 42 -4 0 -15 -6 -24 -12z"/>
<path d="M13500 23016 c0 -8 5 -18 10 -21 6 -3 10 1 10 9 0 8 -4 18 -10 21 -5
3 -10 -1 -10 -9z"/>
<path d="M21065 22978 c-14 -21 -14 -24 7 -40 13 -9 34 -20 48 -23 33 -9 51
-25 44 -39 -3 -6 2 -2 10 8 9 11 16 22 16 25 0 13 -81 91 -94 91 -8 0 -22 -10
-31 -22z"/>
<path d="M12910 22881 c0 -6 5 -13 10 -16 6 -3 10 1 10 9 0 9 -4 16 -10 16 -5
0 -10 -4 -10 -9z"/>
<path d="M21195 22878 c-9 -23 -3 -39 11 -30 7 4 8 15 4 27 -7 18 -9 18 -15 3z"/>
<path d="M10158 22798 c-21 -16 -23 -32 -14 -90 10 -59 29 -67 67 -29 62 62
13 170 -53 119z"/>
<path d="M8665 22650 c-4 -11 -10 -18 -15 -15 -4 3 -6 -4 -3 -15 3 -11 8 -20
11 -20 10 0 31 35 32 53 0 23 -17 22 -25 -3z"/>
<path d="M31155 22643 c-11 -3 -47 -17 -80 -33 -80 -38 -130 -50 -213 -52 -63
-1 -73 2 -116 32 -57 39 -76 37 -186 -18 -71 -35 -80 -37 -165 -36 -78 1 -96
4 -138 27 -53 29 -78 28 -132 -5 -90 -55 -277 -78 -335 -41 -42 28 -98 22
-175 -18 -55 -29 -88 -39 -153 -46 -79 -9 -84 -8 -139 19 -57 28 -110 36 -129
19 -5 -4 -40 -25 -79 -46 -56 -29 -85 -38 -142 -42 -65 -5 -80 -3 -153 27
l-81 33 -37 -30 c-20 -16 -68 -44 -107 -62 -64 -31 -74 -33 -143 -28 -46 3
-83 12 -100 23 -15 10 -31 19 -37 19 -5 1 -17 5 -27 9 -10 5 -30 -1 -55 -17
-57 -36 -147 -77 -169 -77 -11 0 -30 -7 -42 -16 -12 -8 -22 -10 -22 -5 0 6
-16 11 -35 11 -37 0 -115 27 -115 40 0 4 -13 13 -29 18 -26 9 -36 6 -97 -39
-38 -27 -69 -53 -69 -57 0 -4 -4 -12 -8 -19 -4 -6 -4 -14 1 -17 16 -10 237 -8
291 3 29 6 57 8 62 5 5 -3 12 2 15 10 7 18 34 22 34 5 0 -7 7 -8 18 -4 9 4 91
8 182 10 91 2 179 6 195 9 63 12 113 17 185 21 126 6 250 14 365 25 61 5 180
12 265 15 85 3 169 7 185 10 57 8 150 14 275 20 69 3 172 9 230 14 58 5 152
10 209 11 58 0 108 3 112 5 4 3 65 7 135 10 71 4 179 8 239 11 61 3 138 6 173
7 34 0 62 5 62 10 0 4 24 8 53 7 119 -1 215 6 229 17 7 7 23 10 35 7 12 -3 42
6 72 21 83 44 118 115 57 115 -22 0 -78 25 -111 50 -16 12 -39 17 -60 13z"/>
<path d="M20678 22505 c-42 -39 -48 -51 -18 -35 23 13 55 -5 55 -30 0 -9 8
-14 20 -13 11 1 33 -2 49 -7 49 -17 48 0 -5 58 -28 31 -54 58 -58 59 -3 1 -23
-13 -43 -32z"/>
<path d="M12303 22434 c-3 -8 -1 -20 6 -27 8 -8 11 -4 11 16 0 30 -7 35 -17
11z"/>
<path d="M16716 22395 c-11 -8 -17 -17 -14 -20 3 -3 16 3 29 14 27 23 14 28
-15 6z"/>
<path d="M9063 22348 c-10 -13 -9 -106 1 -116 9 -8 47 30 57 56 18 48 -29 96
-58 60z"/>
<path d="M27286 22278 c-34 -20 -77 -69 -74 -85 2 -9 12 -18 23 -20 39 -7 125
-8 125 -2 0 4 6 7 13 6 6 0 32 1 57 1 33 2 41 5 32 14 -7 7 -8 17 -1 30 8 15
6 18 -11 18 -12 0 -38 11 -58 25 -39 27 -75 31 -106 13z"/>
<path d="M26860 22242 c-14 -2 -29 -10 -33 -18 -4 -8 -14 -14 -21 -14 -7 0
-22 -10 -34 -23 l-22 -24 20 -18 c27 -25 111 -28 175 -7 38 13 44 18 27 20
-12 2 -20 7 -17 12 6 9 -11 29 -51 60 -10 9 -30 14 -44 12z"/>
<path d="M27608 22213 c7 -3 16 -2 19 1 4 3 -2 6 -13 5 -11 0 -14 -3 -6 -6z"/>
<path d="M12005 22200 c-3 -5 -2 -10 4 -10 5 0 13 5 16 10 3 6 2 10 -4 10 -5
0 -13 -4 -16 -10z"/>
<path d="M26371 22176 c-8 -9 -20 -16 -28 -16 -17 0 -36 -18 -45 -41 -5 -14 3
-17 51 -22 80 -7 108 0 113 28 6 30 -13 54 -49 61 -20 4 -33 1 -42 -10z"/>
<path d="M25900 22149 c-23 -8 -78 -75 -69 -83 16 -13 71 -22 104 -17 32 5 40
11 47 36 6 23 3 34 -14 52 -23 25 -30 26 -68 12z"/>
<path d="M20950 22121 c0 -3 16 -24 35 -45 39 -44 44 -79 20 -126 -14 -27 -14
-29 1 -23 9 3 20 0 25 -8 7 -11 9 -11 9 -1 0 10 8 12 29 7 32 -7 60 -9 206
-20 50 -3 119 -8 155 -11 146 -11 186 -13 440 -21 296 -8 1264 -7 1380 3 41 3
143 7 225 9 310 7 616 21 740 35 50 6 164 12 254 15 90 2 167 8 170 13 3 5 34
12 67 15 65 7 114 24 114 39 0 5 -10 6 -22 1 -36 -13 -131 -5 -141 12 -4 8
-14 15 -21 15 -6 0 -27 11 -46 25 -45 33 -67 32 -143 -10 -35 -19 -71 -35 -81
-35 -9 0 -19 -6 -21 -12 -3 -8 -26 -14 -55 -15 -54 -2 -130 24 -166 58 -14 13
-36 20 -60 20 -50 1 -61 -2 -109 -32 -22 -13 -54 -29 -71 -35 -42 -14 -150
-18 -159 -5 -3 6 -15 11 -25 11 -10 0 -20 3 -22 8 -4 9 -100 82 -107 82 -6 -1
-34 -16 -123 -64 -45 -25 -64 -29 -128 -29 -85 1 -112 12 -158 65 -42 48 -76
52 -138 17 -97 -55 -118 -62 -176 -61 -68 2 -98 16 -153 71 -22 22 -47 40 -57
41 -9 0 -55 -19 -103 -42 -109 -52 -174 -55 -238 -11 -77 54 -81 55 -129 37
-85 -31 -104 -40 -149 -67 -73 -43 -139 -45 -280 -9 -23 6 -72 6 -133 -1 -93
-10 -100 -9 -182 18 -76 24 -96 27 -177 22 -90 -4 -134 2 -192 28 -34 15 -105
26 -105 16z"/>
<path d="M25388 22089 c-51 -42 -50 -63 5 -75 53 -12 127 1 127 22 0 8 4 13
10 9 5 -3 5 5 -1 23 -20 57 -85 67 -141 21z"/>
<path d="M24913 22068 c-68 -43 -95 -95 -50 -96 139 -3 176 0 214 14 51 20 55
37 13 54 -17 7 -34 18 -38 24 -8 13 -56 36 -75 36 -7 0 -35 -15 -64 -32z"/>
<path d="M20291 22059 c-24 -23 -23 -45 3 -43 9 1 16 -2 16 -7 0 -5 -10 -9
-22 -9 -19 -1 -16 -4 12 -16 19 -8 45 -13 57 -11 14 2 29 -3 39 -14 19 -21 34
-25 34 -9 0 6 -11 15 -25 20 -14 5 -25 16 -25 25 0 8 -15 31 -33 50 l-33 35
-23 -21z"/>
<path d="M8035 21780 c-3 -5 -2 -10 3 -10 5 0 7 -13 4 -30 -5 -38 3 -38 22 -1
11 21 12 31 3 40 -14 14 -24 14 -32 1z"/>
<path d="M11385 21760 c-3 -5 -2 -10 4 -10 5 0 13 5 16 10 3 6 2 10 -4 10 -5
0 -13 -4 -16 -10z"/>
<path d="M15830 21600 c-13 -8 -12 -10 3 -10 9 0 17 5 17 10 0 12 -1 12 -20 0z"/>
<path d="M19855 21583 c-14 -15 -25 -33 -25 -39 0 -7 -9 -14 -21 -17 -12 -3
-18 -10 -14 -17 4 -6 13 -9 20 -6 8 3 15 0 17 -6 3 -7 13 -3 26 10 12 12 28
22 35 22 8 0 7 -3 -3 -10 -12 -7 -12 -12 -3 -21 10 -10 14 -9 19 4 3 9 13 17
21 17 8 0 11 -5 7 -12 -5 -10 -4 -10 6 -1 11 10 17 7 32 -17 11 -19 26 -30 40
-30 12 0 18 3 15 7 -4 3 -35 37 -69 75 -33 37 -65 68 -69 68 -5 0 -20 -12 -34
-27z"/>
<path d="M11080 21550 c0 -5 5 -10 10 -10 6 0 10 5 10 10 0 6 -4 10 -10 10 -5
0 -10 -4 -10 -10z"/>
<path d="M10757 21353 c-12 -11 -8 -23 8 -23 8 0 15 7 15 15 0 16 -12 20 -23
8z"/>
<path d="M11004 21219 c-3 -6 -1 -16 5 -22 8 -8 11 -5 11 11 0 24 -5 28 -16
11z"/>
<path d="M19388 21097 c-27 -28 -48 -55 -48 -61 0 -5 21 -30 48 -55 l47 -46 3
28 c3 28 11 33 28 18 5 -6 27 -6 52 -1 24 4 54 5 65 2 21 -5 21 -4 -3 23 -32
36 -100 105 -126 126 -18 16 -21 14 -66 -34z"/>
<path d="M10080 20974 c0 -8 5 -12 10 -9 6 4 8 11 5 16 -9 14 -15 11 -15 -7z"/>
<path d="M14862 20820 c-23 -10 -39 -36 -28 -47 8 -9 77 30 73 41 -5 14 -19
16 -45 6z"/>
<path d="M9755 20810 c-3 -5 -1 -10 4 -10 6 0 11 5 11 10 0 6 -2 10 -4 10 -3
0 -8 -4 -11 -10z"/>
<path d="M18946 20648 c-26 -29 -50 -56 -53 -61 -5 -9 65 -104 83 -111 7 -3
18 9 25 26 6 16 23 34 37 39 13 5 26 18 29 29 3 11 9 20 14 20 5 0 9 5 9 11 0
15 -72 99 -86 99 -6 0 -32 -24 -58 -52z"/>
<path d="M9447 20664 c-4 -4 -7 -17 -7 -28 1 -19 1 -20 11 -3 11 19 8 43 -4
31z"/>
<path d="M9357 20343 c-11 -10 -8 -43 3 -43 6 0 10 11 10 25 0 26 -2 29 -13
18z"/>
<path d="M8815 20330 c3 -5 8 -10 11 -10 2 0 4 5 4 10 0 6 -5 10 -11 10 -5 0
-7 -4 -4 -10z"/>
<path d="M18468 20199 c-27 -28 -48 -52 -48 -55 0 -2 36 -40 80 -84 72 -73
110 -97 110 -70 0 6 -4 10 -10 10 -12 0 -13 40 -2 56 9 14 50 24 54 14 2 -5
11 -3 20 4 15 11 9 21 -61 94 -43 45 -82 82 -87 81 -5 -1 -30 -23 -56 -50z"/>
<path d="M13936 20051 c-4 -7 -5 -15 -2 -18 9 -9 19 4 14 18 -4 11 -6 11 -12
0z"/>
<path d="M18007 19766 c-26 -23 -47 -44 -47 -48 0 -21 159 -178 180 -178 5 0
12 12 16 28 3 15 20 39 36 53 l30 26 -68 72 c-38 40 -76 77 -84 81 -11 6 -29
-4 -63 -34z"/>
<path d="M13029 19393 c-13 -16 -12 -17 4 -4 9 7 17 15 17 17 0 8 -8 3 -21
-13z"/>
<path d="M12994 19369 c-3 -6 -23 -18 -42 -26 l-36 -15 27 -15 c32 -16 73 -14
69 5 -1 7 -3 24 -4 37 -3 28 -4 30 -14 14z"/>
<path d="M17537 19342 c-20 -21 -37 -44 -37 -52 0 -15 40 -58 115 -126 83 -74
100 -78 107 -22 7 51 12 63 28 69 11 5 -7 28 -69 88 -46 44 -88 81 -95 80 -6
-1 -28 -17 -49 -37z"/>
<path d="M17063 18923 c-18 -21 -32 -45 -33 -53 0 -8 27 -37 59 -64 32 -26 76
-66 97 -87 37 -38 73 -51 75 -26 2 39 9 70 19 83 10 11 6 20 -15 46 -34 42
-146 138 -160 138 -6 0 -25 -17 -42 -37z"/>
<path d="M12041 18658 c-47 -50 -36 -78 33 -78 29 0 36 3 29 13 -15 19 -22 56
-12 63 16 9 10 24 -11 24 -10 0 -28 -10 -39 -22z"/>
<path d="M16600 18538 c-19 -13 -39 -36 -44 -51 -9 -25 -5 -32 55 -92 35 -36
68 -65 72 -65 4 0 21 -15 38 -34 46 -53 73 -41 83 39 7 57 12 49 -95 153 l-75
73 -34 -23z"/>
<path d="M11320 18177 c-19 -12 -43 -30 -52 -39 -10 -10 -29 -18 -42 -18 -16
0 -27 -7 -31 -20 -3 -11 -13 -27 -21 -35 -9 -8 -13 -19 -9 -24 8 -13 62 6 69
25 3 8 12 14 21 14 8 0 15 7 15 16 0 9 5 12 12 8 7 -4 8 -3 4 5 -4 7 10 28 34
51 48 46 48 48 0 17z"/>
<path d="M16108 18159 c-10 -5 -18 -17 -18 -25 0 -8 -9 -18 -19 -22 -19 -7
-19 -9 -5 -37 19 -36 189 -184 232 -202 28 -11 30 -11 31 10 0 12 3 38 6 57 6
34 3 40 -82 127 -91 94 -116 109 -145 92z"/>
<path d="M11223 18015 c-3 -9 -3 -18 0 -21 9 -9 27 6 27 22 0 19 -19 18 -27
-1z"/>
<path d="M15417 17982 c-10 -10 -17 -23 -17 -29 0 -13 362 -367 465 -455 57
-48 82 -64 88 -55 7 9 10 9 14 0 8 -21 32 -15 26 6 -8 33 -532 551 -556 551
-2 0 -11 -8 -20 -18z"/>
<path d="M16360 17901 c0 -55 22 -82 33 -40 6 22 -11 69 -25 69 -4 0 -8 -13
-8 -29z"/>
<path d="M10660 17775 c-7 -8 -8 -15 -2 -15 5 0 15 7 22 15 7 8 8 15 2 15 -5
0 -15 -7 -22 -15z"/>
<path d="M10510 17700 c0 -5 4 -10 9 -10 6 0 13 5 16 10 3 6 -1 10 -9 10 -9 0
-16 -4 -16 -10z"/>
<path d="M10390 17651 c-8 -5 -32 -17 -53 -27 -21 -11 -46 -27 -55 -37 -16
-18 -16 -20 2 -32 10 -8 15 -18 12 -23 -9 -15 20 -34 46 -30 28 4 73 85 57
104 -6 7 -4 16 6 24 28 23 17 38 -15 21z m-40 -61 c0 -5 -4 -10 -10 -10 -5 0
-10 5 -10 10 0 6 5 10 10 10 6 0 10 -4 10 -10z"/>
<path d="M9850 17410 c-13 -8 -13 -10 2 -10 9 0 20 5 23 10 8 13 -5 13 -25 0z"/>
<path d="M9740 17360 c-13 -8 -12 -10 3 -10 9 0 17 5 17 10 0 12 -1 12 -20 0z"/>
<path d="M9645 17331 c-3 -5 -19 -12 -35 -16 -16 -4 -33 -11 -36 -17 -4 -7 4
-8 25 -3 32 7 91 33 91 41 0 8 -39 4 -45 -5z"/>
<path d="M9462 17250 c-18 -11 -39 -20 -47 -20 -9 0 -23 -16 -32 -35 -14 -30
-15 -38 -3 -60 8 -15 16 -21 20 -14 4 6 26 13 49 16 30 4 41 10 41 23 0 13 6
17 20 13 26 -7 35 18 19 49 -7 13 -12 29 -11 36 4 18 -18 15 -56 -8z"/>
<path d="M8685 16992 c-34 -8 -68 -22 -63 -27 3 -3 19 0 37 6 24 8 35 8 46 -1
12 -10 15 -9 15 3 0 20 -9 25 -35 19z"/>
<path d="M15840 16910 c0 -5 5 -10 11 -10 5 0 7 5 4 10 -3 6 -8 10 -11 10 -2
0 -4 -4 -4 -10z"/>
<path d="M15905 16910 c-3 -5 -1 -10 4 -10 6 0 11 5 11 10 0 6 -2 10 -4 10 -3
0 -8 -4 -11 -10z"/>
<path d="M15718 16882 c-31 -3 -37 -7 -40 -30 l-4 -27 -12 28 c-14 33 -33 36
-29 5 1 -15 -5 -26 -20 -33 -13 -5 -23 -14 -23 -19 0 -6 -6 -1 -14 9 -13 18
-14 18 -43 -1 -92 -59 -149 -99 -155 -108 -4 -6 -8 -7 -8 -3 0 9 -143 -63
-148 -75 -2 -5 -8 -8 -14 -8 -5 0 -22 -12 -37 -27 -50 -51 -90 -76 -166 -103
-11 -4 -37 -15 -58 -24 -21 -9 -43 -16 -49 -16 -6 0 -35 -24 -64 -54 -72 -73
-143 -112 -229 -126 -86 -14 -113 -30 -154 -91 -34 -48 -72 -73 -156 -98 -22
-7 -54 -19 -72 -27 -17 -8 -38 -14 -46 -14 -8 0 -40 -31 -71 -69 -66 -80 -95
-96 -219 -121 -83 -17 -94 -22 -117 -52 -76 -102 -144 -143 -266 -158 -74 -10
-78 -11 -128 -62 -61 -63 -147 -107 -219 -114 -86 -9 -92 -11 -153 -75 -75
-77 -102 -89 -209 -89 l-85 0 -65 -65 c-35 -36 -76 -70 -90 -75 -15 -6 -68
-10 -118 -10 l-92 0 -63 -54 c-62 -52 -139 -85 -163 -70 -6 3 -35 6 -65 5 -48
0 -60 -5 -106 -42 -87 -69 -121 -80 -214 -69 -86 9 -79 11 -175 -55 -39 -27
-50 -30 -112 -28 -39 1 -75 7 -80 12 -16 16 -53 13 -67 -4 -7 -8 -17 -15 -22
-15 -5 0 -22 -9 -37 -21 -42 -31 -87 -37 -170 -21 -58 10 -80 11 -102 1 -16
-6 -38 -9 -49 -6 -11 3 -20 1 -20 -5 0 -6 -7 -7 -15 -4 -9 3 -18 -1 -22 -10
-5 -14 -16 -15 -67 -9 -84 11 -291 9 -359 -4 -50 -9 -64 -7 -119 13 -35 12
-69 21 -75 19 -7 -3 -18 5 -25 16 -16 27 -28 27 -28 1 0 -12 7 -20 18 -20 27
-1 -60 -30 -89 -30 -15 0 -32 7 -40 16 -7 8 -29 24 -48 34 -20 10 -44 28 -54
40 -23 27 -51 22 -55 -10 -4 -29 -19 -50 -36 -50 -6 0 -35 23 -65 50 -61 56
-92 63 -109 25 -19 -42 -47 -22 -35 24 3 13 0 22 -8 22 -8 1 -21 3 -29 3 -118
12 -154 21 -179 42 -21 17 -46 25 -97 30 -75 7 -103 24 -131 79 l-16 30 -15
-23 c-14 -22 -36 -27 -66 -16 -9 3 -16 11 -16 18 0 6 -10 24 -23 40 -20 25
-27 28 -57 21 -30 -7 -31 -8 -14 -18 10 -6 37 -25 60 -44 23 -18 45 -33 51
-33 5 0 28 -20 50 -44 55 -59 65 -63 161 -65 90 -2 146 -16 123 -30 -8 -6 -9
-11 -3 -15 6 -3 13 0 15 6 4 9 8 10 14 2 4 -6 18 -14 31 -18 12 -4 20 -11 17
-15 -7 -12 26 -38 60 -45 22 -5 26 -4 15 4 -23 15 -7 12 36 -7 37 -16 123 -30
225 -37 25 -2 55 -9 67 -15 12 -6 47 -13 77 -16 31 -3 62 -11 70 -18 9 -9 46
-14 112 -16 119 -3 143 -5 165 -15 9 -4 22 -5 29 -1 6 4 15 2 20 -6 4 -7 24
-14 44 -16 20 -1 43 -7 50 -13 10 -8 15 -8 20 0 4 6 12 7 18 3 7 -5 47 -9 89
-8 43 0 78 -3 78 -7 0 -4 55 -8 123 -8 67 1 142 -4 167 -9 25 -5 52 -9 60 -9
56 4 111 -4 124 -17 9 -9 17 -11 21 -5 3 5 19 10 34 10 15 0 32 5 38 11 7 7
15 6 26 -5 17 -17 67 -22 67 -6 0 15 152 10 177 -6 17 -11 55 -14 153 -12 71
2 131 0 132 -4 2 -4 30 -8 63 -9 33 -1 67 -6 76 -10 10 -5 23 -3 34 5 17 13
66 9 108 -9 10 -4 17 -3 17 4 0 7 10 9 23 6 23 -5 105 -13 221 -21 46 -3 91 1
133 11 56 14 68 14 113 1 27 -8 65 -12 84 -9 19 3 36 1 40 -5 4 -7 18 -5 39 8
28 16 38 17 72 8 54 -16 168 -15 173 0 2 7 10 12 18 12 9 0 13 -4 9 -9 -3 -6
23 -9 65 -8 38 1 70 5 70 10 0 12 62 7 105 -8 50 -18 55 -18 55 -2 0 9 12 13
33 13 17 0 71 3 120 7 64 5 87 4 87 -5 0 -6 11 -2 23 11 22 20 57 21 57 1 0
-11 49 -19 56 -9 3 5 26 9 51 9 29 0 55 7 74 20 16 12 34 20 41 19 7 -1 26 1
41 6 20 5 33 3 47 -10 10 -9 24 -14 29 -10 6 3 16 -5 23 -19 15 -34 36 -33 40
2 3 24 8 27 41 30 35 3 38 6 33 26 -5 22 -5 22 67 13 143 -18 189 -16 225 10
17 13 32 19 32 14 0 -14 33 -14 47 0 6 6 34 13 62 16 50 4 51 3 51 -23 0 -15
3 -24 8 -20 4 4 7 17 7 29 0 31 54 43 72 17 15 -21 48 -27 58 -10 8 13 55 13
75 0 15 -9 85 22 105 48 14 18 51 22 84 11 23 -8 35 -7 56 7 24 15 27 15 44 0
20 -18 51 -22 51 -6 0 6 10 10 23 10 12 0 41 7 65 15 23 8 53 13 66 9 13 -3
27 -1 30 5 4 6 0 11 -8 11 -9 0 -16 8 -16 18 -1 16 -1 16 -14 0 -18 -25 -24
-22 -19 6 4 21 27 35 56 36 4 0 12 -11 16 -23 7 -18 16 -23 39 -22 24 1 28 -2
25 -16 -5 -16 1 -18 50 -16 55 2 94 17 45 17 -24 0 -25 2 -15 25 13 27 27 33
27 11 0 -7 6 -19 14 -25 12 -10 19 -8 35 8 11 11 27 18 35 15 8 -3 40 -1 72 5
48 9 60 8 74 -4 23 -21 34 -19 45 8 6 12 19 22 30 23 40 2 45 4 45 19 0 8 5
15 10 15 6 0 10 9 10 20 0 22 25 27 33 6 8 -21 67 -29 87 -11 9 8 19 12 23 9
3 -3 10 4 17 15 6 12 17 21 24 21 8 0 17 10 21 23 6 17 8 19 12 6 2 -10 13
-19 24 -22 11 -3 19 -14 19 -26 0 -25 -1 -25 41 -4 19 10 45 16 59 15 14 -2
21 1 15 5 -17 13 -11 57 8 61 12 3 17 -4 18 -22 1 -14 2 -32 3 -38 1 -16 56
-24 56 -9 0 6 -7 11 -15 11 -8 0 -15 5 -15 11 0 5 5 7 10 4 6 -3 10 1 10 10 0
9 -4 13 -10 10 -5 -3 -10 -1 -10 4 0 15 27 14 32 -1 5 -15 49 -4 78 22 13 11
31 20 42 20 27 0 22 29 -7 36 -14 4 -29 4 -32 1 -10 -11 -43 13 -43 32 0 9 12
28 26 40 25 21 37 22 74 7 9 -4 20 2 28 14 10 17 10 23 -2 35 -20 21 -62 19
-78 -3 -11 -16 -16 -16 -38 -5 l-25 13 32 0 c25 0 31 4 27 15 -4 8 -15 15 -25
15 -10 0 -19 7 -19 15 0 17 13 19 58 6 43 -13 62 -5 62 24 0 16 8 26 22 31 17
5 28 0 49 -26 21 -24 32 -31 46 -25 12 5 14 9 6 12 -8 3 -13 22 -13 44 0 35
-2 39 -26 39 -23 0 -25 3 -20 28 4 15 14 33 23 40 15 10 14 12 -10 12 -20 0
-28 -6 -33 -25 -3 -14 -4 -31 -1 -39 3 -8 -2 -16 -11 -18 -15 -4 -17 3 -14 49
4 57 17 72 50 58 9 -5 25 -7 36 -6 10 2 29 -7 42 -20 19 -17 28 -20 45 -13
l22 10 -26 29 c-15 17 -27 24 -27 18 0 -18 -26 -16 -55 3 -46 30 -21 44 36 20
26 -11 31 21 7 44 -19 17 -19 20 -5 26 10 3 17 12 17 20 0 8 8 14 18 14 13 0
14 -2 3 -9 -11 -7 -10 -11 7 -20 11 -6 29 -11 39 -12 10 0 13 -3 6 -6 -7 -2
-13 -12 -13 -20 0 -9 -9 -24 -21 -34 l-21 -18 26 -26 c37 -37 46 -32 39 23 -5
44 -3 49 21 60 23 10 25 15 16 32 -7 13 -21 20 -40 20 -20 0 -31 6 -35 20 -3
11 -15 20 -25 20 -14 0 -18 7 -18 30 1 25 5 30 26 30 18 0 23 4 18 15 -4 11 3
17 24 22 32 6 50 22 28 24 -7 1 -17 1 -22 0 -5 -1 -6 5 -2 14 3 9 6 22 6 28 0
7 4 6 9 -2 8 -12 12 -12 25 -2 9 8 16 20 16 27 0 8 9 14 20 14 11 0 20 6 20
14 0 8 -8 13 -17 12 -13 -1 -18 6 -18 27 1 15 -5 27 -12 27 -16 0 -17 22 -1
38 20 20 38 14 38 -13 0 -19 5 -25 21 -25 20 0 21 -4 16 -55 -3 -30 -1 -57 4
-60 5 -4 9 -15 9 -26 0 -10 4 -19 10 -19 5 0 9 -8 8 -17 -1 -10 0 -38 1 -63 2
-34 4 -40 10 -25 5 11 6 25 4 31 -2 7 1 15 6 19 6 3 9 11 5 16 -3 5 0 16 6 24
9 11 8 20 -9 41 -12 15 -21 32 -21 40 0 7 -4 14 -10 16 -12 4 6 78 19 78 5 0
12 -12 15 -26 6 -21 9 -24 21 -14 20 17 19 40 -1 40 -14 0 -14 3 -4 15 7 8 21
15 31 15 14 0 19 7 19 25 0 28 -12 32 -30 10 -7 -8 -21 -15 -30 -15 -10 0 -20
-5 -22 -12 -6 -18 -55 -1 -61 22 -3 11 -13 20 -24 20 -14 0 -18 7 -17 32 1 24
6 33 18 32 9 -1 16 2 16 7 0 5 11 9 24 9 21 0 23 5 23 40 0 37 -2 40 -28 40
-16 0 -32 -7 -38 -17 -10 -16 -12 -17 -23 -2 -7 9 -28 16 -45 17 -43 1 -55 9
-51 35 4 33 -10 47 -47 47 -25 0 -37 6 -46 22 -7 13 -23 31 -37 42 -25 20 -25
20 -4 36 17 14 19 25 15 71 -3 30 -9 62 -14 71 -5 10 -7 29 -3 43 4 18 2 27
-11 31 -21 8 -37 -14 -26 -35 4 -10 0 -30 -10 -51 -15 -29 -18 -31 -19 -12 0
13 -6 22 -15 22 -18 0 -18 -1 -4 38 8 22 7 36 -1 52 l-12 22 -19 -21 c-10 -11
-19 -28 -20 -38 0 -15 -2 -14 -11 5 -11 22 -28 30 -28 12 0 -5 -7 -10 -15 -10
-8 0 -14 6 -12 13 1 6 -6 11 -15 9 -19 -3 -24 13 -8 23 6 3 10 17 10 31 0 28
-33 33 -60 9 -16 -14 -19 -13 -34 20 -9 19 -21 35 -26 35 -6 0 -9 3 -9 8 1 4
0 12 -1 17 -1 6 -2 30 -1 55 0 25 -2 39 -5 33 -8 -19 -24 -16 -24 5 0 12 -2
14 -8 4 -11 -17 -53 -24 -68 -11 -14 12 -64 -25 -64 -48 0 -7 -4 -13 -10 -13
-5 0 -10 23 -10 51 0 32 -4 48 -10 44 -6 -4 -9 -14 -8 -23 2 -10 -7 -21 -19
-27 -13 -5 -23 -16 -23 -24 0 -9 -7 -11 -21 -8 -11 3 -34 1 -50 -5 -34 -12
-41 -8 -43 24 -1 30 -30 30 -34 1 -2 -13 -8 -23 -14 -23 -5 0 -7 7 -4 16 8 20
-20 43 -51 44 -19 0 -23 6 -23 34 0 41 -14 52 -62 48z m-172 -119 c-11 -11
-19 6 -11 24 8 17 8 17 12 0 3 -10 2 -21 -1 -24z m679 -13 c8 0 15 -5 15 -11
0 -7 -10 -9 -27 -4 -35 8 -35 8 -27 30 6 15 8 16 16 1 5 -9 16 -16 23 -16z
m-405 -22 c0 -5 -6 -7 -12 -4 -7 3 -21 9 -30 12 -10 4 -18 12 -18 19 0 11 6
10 30 -1 17 -9 30 -20 30 -26z m425 -48 c-3 -5 -13 -10 -21 -10 -8 0 -14 5
-14 10 0 6 9 10 21 10 11 0 17 -4 14 -10z m-280 -28 c-8 -8 -25 10 -19 20 4 6
9 5 15 -3 4 -7 6 -15 4 -17z m70 -2 c3 -5 1 -10 -4 -10 -6 0 -11 5 -11 10 0 6
2 10 4 10 3 0 8 -4 11 -10z m278 -87 c-7 -2 -19 -2 -25 0 -7 3 -2 5 12 5 14 0
19 -2 13 -5z m599 -455 c-9 -9 -12 -7 -12 12 0 19 3 21 12 12 9 -9 9 -15 0
-24z m-106 -25 c-10 -10 -19 5 -10 18 6 11 8 11 12 0 2 -7 1 -15 -2 -18z m74
12 c0 -8 -4 -15 -10 -15 -5 0 -10 7 -10 15 0 8 5 15 10 15 6 0 10 -7 10 -15z
m-100 -108 c0 -7 5 -5 10 3 8 12 10 9 10 -12 0 -26 -3 -28 -41 -28 -36 0 -40
2 -29 15 9 10 9 15 1 15 -6 0 -11 9 -11 19 0 18 3 19 30 10 17 -6 30 -16 30
-22z m0 -157 c0 -5 -7 -10 -15 -10 -8 0 -15 5 -15 10 0 6 7 10 15 10 8 0 15
-4 15 -10z m-120 -199 c0 -6 -4 -13 -10 -16 -5 -3 -10 1 -10 9 0 9 5 16 10 16
6 0 10 -4 10 -9z m0 -45 c0 -8 -7 -16 -15 -20 -8 -3 -15 -4 -15 -2 0 3 -3 11
-6 20 -4 12 0 16 15 16 12 0 21 -6 21 -14z m-150 -187 c0 -22 -4 -39 -9 -39
-4 0 -6 -11 -3 -25 2 -13 1 -32 -2 -42 -6 -15 -8 -15 -16 -3 -7 10 -10 11 -10
3 0 -22 -37 -14 -43 8 -4 15 0 23 13 26 24 6 44 56 37 92 -7 34 1 45 20 30 7
-6 13 -29 13 -50z m50 51 c0 -5 -5 -10 -11 -10 -5 0 -7 5 -4 10 3 6 8 10 11
10 2 0 4 -4 4 -10z m-183 -166 c-3 -3 -12 -4 -19 -1 -8 3 -5 6 6 6 11 1 17 -2
13 -5z m-69 -57 c4 -30 -9 -35 -28 -12 -7 8 -19 15 -26 15 -23 0 -16 18 9 23
35 7 42 2 45 -26z m112 -8 c0 -14 -17 -10 -23 5 -4 10 -1 13 9 9 7 -3 14 -9
14 -14z m-406 -84 c3 -8 1 -15 -4 -15 -6 0 -10 7 -10 15 0 8 2 15 4 15 2 0 6
-7 10 -15z m191 -5 c3 -5 -1 -10 -9 -10 -9 0 -16 5 -16 10 0 6 4 10 9 10 6 0
13 -4 16 -10z m150 0 c4 -6 -7 -10 -25 -10 -18 0 -29 4 -25 10 3 6 15 10 25
10 10 0 22 -4 25 -10z m-188 -64 c-7 -13 -15 -22 -19 -20 -13 8 -9 42 5 47 21
7 26 -2 14 -27z m-171 -63 c-11 -11 -19 6 -11 24 8 17 8 17 12 0 3 -10 2 -21
-1 -24z m-232 -39 c3 -8 2 -12 -4 -9 -6 3 -10 10 -10 16 0 14 7 11 14 -7z
m-6164 -134 c0 -5 -4 -10 -10 -10 -5 0 -10 5 -10 10 0 6 5 10 10 10 6 0 10 -4
10 -10z m5320 -86 c0 -8 -5 -12 -10 -9 -6 4 -8 11 -5 16 9 14 15 11 15 -7z
m-87 -21 c-7 -2 -19 -2 -25 0 -7 3 -2 5 12 5 14 0 19 -2 13 -5z m-2108 -153
c3 -5 1 -10 -4 -10 -6 0 -11 5 -11 10 0 6 2 10 4 10 3 0 8 -4 11 -10z"/>
<path d="M15878 16883 c7 -3 16 -2 19 1 4 3 -2 6 -13 5 -11 0 -14 -3 -6 -6z"/>
<path d="M16400 16821 c0 -12 6 -21 16 -21 9 0 14 7 12 17 -5 25 -28 28 -28 4z"/>
<path d="M15950 16790 c0 -10 39 -34 46 -27 3 2 2 12 -2 21 -7 17 -44 23 -44
6z"/>
<path d="M16376 16752 c-3 -6 1 -17 9 -26 13 -13 13 -15 -5 -21 -11 -3 -20
-10 -20 -14 0 -13 56 -33 77 -28 14 3 12 6 -12 16 l-30 13 23 18 c27 22 28 30
4 30 -10 0 -23 5 -29 11 -7 7 -13 7 -17 1z"/>
<path d="M16760 16551 c0 -18 18 -21 30 -6 10 13 9 15 -9 15 -11 0 -21 -4 -21
-9z"/>
<path d="M16640 16454 c0 -14 4 -23 9 -20 5 3 7 15 4 26 -7 28 -13 25 -13 -6z"/>
<path d="M16846 16215 c-19 -29 -14 -45 15 -45 15 0 19 7 19 35 0 41 -11 45
-34 10z"/>
<path d="M17018 16083 c7 -3 16 -2 19 1 4 3 -2 6 -13 5 -11 0 -14 -3 -6 -6z"/>
<path d="M17080 16070 c0 -5 5 -10 10 -10 6 0 10 5 10 10 0 6 -4 10 -10 10 -5
0 -10 -4 -10 -10z"/>
<path d="M17080 16010 c0 -5 5 -10 10 -10 6 0 10 5 10 10 0 6 -4 10 -10 10 -5
0 -10 -4 -10 -10z"/>
<path d="M17105 15910 c3 -5 8 -10 11 -10 2 0 4 5 4 10 0 6 -5 10 -11 10 -5 0
-7 -4 -4 -10z"/>
<path d="M17000 15760 c0 -5 15 -10 33 -10 24 0 28 3 17 10 -20 13 -50 13 -50
0z"/>
<path d="M16865 15710 c-3 -5 -1 -10 4 -10 6 0 11 5 11 10 0 6 -2 10 -4 10 -3
0 -8 -4 -11 -10z"/>
<path d="M16852 15661 c-10 -6 -9 -10 7 -14 14 -3 21 0 21 9 0 16 -9 18 -28 5z"/>
<path d="M17010 15530 c0 -6 7 -10 15 -10 8 0 15 2 15 4 0 2 -7 6 -15 10 -8 3
-15 1 -15 -4z"/>
<path d="M16910 15440 c-9 -6 -5 -14 14 -31 14 -12 26 -31 26 -41 0 -22 16
-24 24 -2 9 24 7 46 -4 39 -5 -3 -10 3 -10 13 0 21 -30 34 -50 22z"/>
<path d="M16775 15391 c-3 -6 3 -14 12 -20 16 -9 16 -10 2 -11 -10 0 -19 -11
-22 -29 -4 -18 -14 -31 -29 -35 -15 -4 -19 -9 -12 -13 7 -5 13 -16 15 -26 2
-10 8 -17 12 -15 12 4 29 -30 22 -42 -3 -6 1 -13 9 -16 9 -3 16 -14 16 -23 0
-12 -7 -8 -25 13 -24 27 -25 28 -73 17 -27 -7 -54 -11 -62 -9 -18 4 -22 -14
-6 -34 11 -15 17 -16 43 -6 28 10 33 9 54 -13 34 -36 58 -42 86 -23 19 12 22
19 14 27 -18 18 -13 33 14 45 22 10 24 14 13 37 -8 18 -16 24 -30 19 -20 -6
-48 11 -48 30 0 6 20 19 45 29 25 11 45 22 45 27 0 4 -13 13 -30 20 -16 7 -27
16 -24 22 6 10 -13 38 -27 38 -4 0 -10 -4 -14 -9z m45 -261 c0 -5 -4 -10 -10
-10 -5 0 -10 5 -10 10 0 6 5 10 10 10 6 0 10 -4 10 -10z"/>
<path d="M17310 15370 c0 -5 5 -10 10 -10 6 0 10 5 10 10 0 6 -4 10 -10 10 -5
0 -10 -4 -10 -10z"/>
<path d="M8740 15351 c0 -4 18 -20 40 -37 22 -16 40 -32 40 -37 0 -22 49 -78
76 -87 18 -6 40 -20 49 -30 40 -45 49 -8 9 39 -14 17 -35 31 -48 31 -14 0 -28
11 -40 31 -10 17 -29 35 -42 41 -13 6 -24 17 -24 24 0 6 -13 17 -30 23 -16 5
-30 7 -30 2z"/>
<path d="M17000 15350 c0 -5 5 -10 10 -10 6 0 10 5 10 10 0 6 -4 10 -10 10 -5
0 -10 -4 -10 -10z"/>
<path d="M17026 15317 c3 -10 9 -15 12 -12 3 3 0 11 -7 18 -10 9 -11 8 -5 -6z"/>
<path d="M17181 15294 c-17 -16 -22 -27 -16 -41 8 -16 9 -16 12 5 5 24 23 31
23 8 0 -7 6 -19 14 -25 11 -10 17 -7 30 11 24 34 20 55 -12 60 -19 3 -35 -3
-51 -18z"/>
<path d="M16977 15293 c-11 -10 -8 -41 5 -49 6 -4 17 1 24 11 11 14 11 20 -1
31 -15 16 -19 17 -28 7z"/>
<path d="M17284 15285 c-13 -11 -14 -13 -3 -9 11 3 18 -2 22 -15 7 -27 24 -27
32 -1 12 39 -15 52 -51 25z"/>
<path d="M16611 15264 c0 -11 3 -14 6 -6 3 7 2 16 -1 19 -3 4 -6 -2 -5 -13z"/>
<path d="M16833 15268 c2 -7 14 -12 26 -11 20 3 25 -6 22 -34 -1 -7 6 -13 16
-14 16 0 16 -1 -2 -9 -16 -7 -17 -9 -3 -9 9 -1 23 -4 31 -7 21 -8 27 17 14 59
-12 36 -13 37 -60 37 -35 0 -47 -4 -44 -12z"/>
<path d="M17060 15168 c0 -13 6 -18 17 -16 24 5 27 25 3 31 -15 4 -20 0 -20
-15z"/>
<path d="M16573 15123 c-7 -2 -13 -16 -13 -29 0 -19 5 -24 24 -24 13 0 26 -7
30 -15 5 -15 36 -21 36 -7 0 4 -5 24 -11 45 -10 37 -29 46 -66 30z"/>
<path d="M9380 15024 c0 -12 7 -24 15 -28 19 -7 19 5 0 30 -14 19 -14 19 -15
-2z"/>
<path d="M16700 15031 c0 -6 5 -13 10 -16 6 -3 10 1 10 9 0 9 -4 16 -10 16 -5
0 -10 -4 -10 -9z"/>
<path d="M16720 14984 c0 -8 5 -12 10 -9 6 4 8 11 5 16 -9 14 -15 11 -15 -7z"/>
<path d="M16423 14953 c9 -2 25 -2 35 0 9 3 1 5 -18 5 -19 0 -27 -2 -17 -5z"/>
<path d="M9430 14900 c0 -5 5 -10 11 -10 5 0 7 5 4 10 -3 6 -8 10 -11 10 -2 0
-4 -4 -4 -10z"/>
<path d="M14178 14628 c9 -9 15 -9 24 0 9 9 7 12 -12 12 -19 0 -21 -3 -12 -12z"/>
<path d="M13210 14549 c0 -5 5 -7 10 -4 6 3 10 8 10 11 0 2 -4 4 -10 4 -5 0
-10 -5 -10 -11z"/>
</g>
</svg>
